<svg width="24" height="24" viewBox="0 0 24 24" fill="none" xmlns="http://www.w3.org/2000/svg">
<path d="M20.4499 7.83002H17.6499V10.64C17.6499 10.7726 17.5972 10.8998 17.5035 10.9936C17.4097 11.0873 17.2825 11.14 17.1499 11.14C17.0173 11.14 16.8901 11.0873 16.7964 10.9936C16.7026 10.8998 16.6499 10.7726 16.6499 10.64V7.83002H13.8399C13.7073 7.83002 13.5801 7.77734 13.4864 7.68357C13.3926 7.5898 13.3399 7.46263 13.3399 7.33002C13.3399 7.19741 13.3926 7.07023 13.4864 6.97647C13.5801 6.8827 13.7073 6.83002 13.8399 6.83002H16.6499V4.02002C16.6499 3.88741 16.7026 3.76023 16.7964 3.66647C16.8901 3.5727 17.0173 3.52002 17.1499 3.52002C17.2825 3.52002 17.4097 3.5727 17.5035 3.66647C17.5972 3.76023 17.6499 3.88741 17.6499 4.02002V6.83002H20.4499C20.5825 6.83002 20.7097 6.8827 20.8035 6.97647C20.8972 7.07023 20.9499 7.19741 20.9499 7.33002C20.9499 7.46263 20.8972 7.5898 20.8035 7.68357C20.7097 7.77734 20.5825 7.83002 20.4499 7.83002ZM3.54492 7.83002C3.41231 7.83002 3.28514 7.77734 3.19137 7.68357C3.0976 7.5898 3.04492 7.46263 3.04492 7.33002C3.04492 7.19741 3.0976 7.07023 3.19137 6.97647C3.28514 6.8827 3.41231 6.83002 3.54492 6.83002H10.1639C10.2965 6.83002 10.4237 6.8827 10.5175 6.97647C10.6112 7.07023 10.6639 7.19741 10.6639 7.33002C10.6639 7.46263 10.6112 7.5898 10.5175 7.68357C10.4237 7.77734 10.2965 7.83002 10.1639 7.83002H3.54492ZM13.8359 16.05C13.7033 16.05 13.5761 15.9973 13.4824 15.9036C13.3886 15.8098 13.3359 15.6826 13.3359 15.55C13.3359 15.4174 13.3886 15.2902 13.4824 15.1965C13.5761 15.1027 13.7033 15.05 13.8359 15.05H20.4549C20.5875 15.05 20.7147 15.1027 20.8085 15.1965C20.9022 15.2902 20.9549 15.4174 20.9549 15.55C20.9549 15.6826 20.9022 15.8098 20.8085 15.9036C20.7147 15.9973 20.5875 16.05 20.4549 16.05H13.8359ZM13.8359 20.191C13.7033 20.191 13.5761 20.1383 13.4824 20.0446C13.3886 19.9508 13.3359 19.8236 13.3359 19.691C13.3359 19.5584 13.3886 19.4312 13.4824 19.3375C13.5761 19.2437 13.7033 19.191 13.8359 19.191H20.4549C20.5875 19.191 20.7147 19.2437 20.8085 19.3375C20.9022 19.4312 20.9549 19.5584 20.9549 19.691C20.9549 19.8236 20.9022 19.9508 20.8085 20.0446C20.7147 20.1383 20.5875 20.191 20.4549 20.191H13.8359ZM9.54992 19.61C9.6312 19.7062 9.67317 19.8296 9.66744 19.9554C9.66171 20.0813 9.60869 20.2003 9.519 20.2887C9.4293 20.3772 9.30953 20.4285 9.18363 20.4324C9.05773 20.4364 8.93498 20.3927 8.83992 20.31L6.85992 18.33C6.19992 18.98 5.52992 19.65 4.86992 20.31C4.77486 20.3927 4.65211 20.4364 4.52621 20.4324C4.40031 20.4285 4.28054 20.3772 4.19085 20.2887C4.10115 20.2003 4.04814 20.0813 4.0424 19.9554C4.03667 19.8296 4.07864 19.7062 4.15992 19.61L6.14992 17.62L4.15992 15.63C4.07864 15.5338 4.03667 15.4104 4.0424 15.2846C4.04814 15.1588 4.10115 15.0398 4.19085 14.9513C4.28054 14.8629 4.40031 14.8116 4.52621 14.8076C4.65211 14.8037 4.77486 14.8474 4.86992 14.93L5.44992 15.51L6.84992 16.91C7.51992 16.25 8.17992 15.59 8.83992 14.93C8.93498 14.8474 9.05773 14.8037 9.18363 14.8076C9.30953 14.8116 9.4293 14.8629 9.519 14.9513C9.60869 15.0398 9.66171 15.1588 9.66744 15.2846C9.67317 15.4104 9.6312 15.5338 9.54992 15.63L7.55992 17.62L9.54992 19.61Z" fill="#D6B896"/>
</svg>
