<svg width="24" height="24" viewBox="0 0 24 24" fill="none" xmlns="http://www.w3.org/2000/svg">
<path d="M14.7769 14.038L17.4269 10.118C17.6889 9.73204 17.1919 9.31304 16.8119 9.58904L13.9539 11.604C13.8583 11.6706 13.7445 11.7062 13.6279 11.7062C13.5114 11.7062 13.3976 11.6706 13.3019 11.604L11.1859 10.127C10.5529 9.69004 9.64794 9.85004 9.22294 10.462L6.57294 14.382C6.31094 14.768 6.80794 15.188 7.18794 14.911L10.0459 12.896C10.1416 12.8295 10.2554 12.7938 10.3719 12.7938C10.4885 12.7938 10.6023 12.8295 10.6979 12.896L12.8139 14.348C13.4469 14.81 14.3519 14.65 14.7769 14.038Z" fill="white"/>
<path fill-rule="evenodd" clip-rule="evenodd" d="M12 2.25C9.41415 2.25 6.9342 3.27723 5.10572 5.10571C3.27724 6.93419 2.25001 9.41414 2.25001 12C2.24846 13.3147 2.51351 14.616 3.02915 15.8254C3.54478 17.0347 4.30029 18.1269 5.25001 19.036V21.5C5.24994 21.6189 5.27812 21.736 5.33223 21.8419C5.38634 21.9477 5.46483 22.0391 5.56123 22.1087C5.65762 22.1782 5.76917 22.2239 5.88666 22.2418C6.00415 22.2598 6.12424 22.2496 6.23701 22.212L9.01701 21.285C9.98115 21.594 10.9876 21.7509 12 21.75C17.385 21.75 21.75 17.385 21.75 12C21.75 6.615 17.385 2.25 12 2.25ZM3.75001 12C3.75068 10.2496 4.30809 8.54475 5.34161 7.13202C6.37513 5.7193 7.83121 4.67191 9.49927 4.14133C11.1673 3.61074 12.9609 3.62446 14.6207 4.18049C16.2804 4.73653 17.7203 5.80606 18.7321 7.23442C19.7439 8.66279 20.2752 10.376 20.2491 12.1262C20.223 13.8764 19.6409 15.573 18.587 16.9705C17.533 18.3681 16.0619 19.3942 14.3863 19.9005C12.7107 20.4068 10.9175 20.3671 9.26601 19.787C9.10894 19.7318 8.93796 19.7304 8.78001 19.783L6.75001 20.459V18.709C6.75014 18.6033 6.72794 18.4988 6.68486 18.4023C6.64178 18.3058 6.57878 18.2195 6.50001 18.149C5.63377 17.3761 4.9409 16.4286 4.46694 15.3688C3.99297 14.309 3.74864 13.1609 3.75001 12Z" fill="white"/>
</svg>
