<svg width="207" height="55" viewBox="0 0 207 55" fill="none" xmlns="http://www.w3.org/2000/svg">
<path d="M78.4 7.5H87.4C89.8 7.5 91.7 8.2 93 9.4C93.9 10.3 94.4 11.5 94.4 12.8V12.9C94.4 15.7 92.7 17.1 91 17.8C93.5 18.5 95.6 20 95.6 22.9V23C95.6 26.6 92.5 28.8 87.9 28.8H78.5V7.5H78.4ZM91.9 13.1C91.9 11 90.2 9.6 87.2 9.6H80.7V16.9H87C90 16.9 91.9 15.7 91.9 13.1ZM93.1 22.7C93.1 20.4 91.2 19.1 87.5 19.1H80.8V26.6H87.9C91.1 26.6 93.1 25.2 93.1 22.7Z" fill="white"/>
<path d="M100.3 7.5H109.4C112 7.5 114.1 8.3 115.4 9.6C116.5 10.7 117 12.1 117 13.8V13.9C117 17.4 114.6 19.5 111.2 20.1L117.7 28.8H114.8L108.6 20.5H102.5V28.8H100.1V7.5H100.3ZM109.2 18.3C112.4 18.3 114.7 16.7 114.7 13.9V13.8C114.7 11.2 112.7 9.6 109.3 9.6H102.7V18.2H109.2V18.3Z" fill="white"/>
<path d="M122.3 7.5H137.7V9.7H124.7V17H136.3V19.2H124.7V26.6H137.8V28.8H122.3V7.5Z" fill="white"/>
<path d="M140.8 7.5H143.5L151.1 25.8L158.7 7.5H161.3L152.2 28.9H150.1L140.8 7.5Z" fill="white"/>
<path d="M165.4 7.5H167.8V20.2L180 7.5H183.1L174 16.8L183.5 28.8H180.5L172.3 18.5L167.8 23.1V28.8H165.4V7.5Z" fill="white"/>
<path d="M184.8 18.2C184.8 12.3 189.2 7.10001 195.7 7.10001C202.2 7.10001 206.5 12.2 206.5 18V18.1C206.5 24 202.1 29.1 195.6 29.1C189.1 29.1 184.8 24 184.8 18.2ZM204 18.2C204 13.3 200.5 9.40001 195.6 9.40001C190.7 9.40001 187.3 13.3 187.3 18.1V18.2C187.3 23 190.8 27 195.7 27C200.6 27 204 23 204 18.2Z" fill="white"/>
<path d="M79 41.1H85.6V49.3H84.7V42H80V49.3H79V41.1Z" fill="white"/>
<path d="M93.2 41.1H94.1L97.8 49.4H96.8L95.8 47.2H91.3L90.3 49.4H89.4L93.2 41.1ZM95.5 46.3L93.6 42.1L91.7 46.3H95.5Z" fill="white"/>
<path d="M101.8 41.1H102.7L105.7 45.6L108.7 41.1H109.6V49.3H108.7V42.7L105.7 47.1L102.7 42.7V49.3H101.8V41.1Z" fill="white"/>
<path d="M113.6 44.1L113.4 43.8C114.1 43.3 114.4 42.9 114.7 42.1L114.8 42.5L114.3 42C113.9 41.7 113.8 41.4 113.8 41.1C113.8 40.6 114.1 40.4 114.5 40.4C114.7 40.4 114.9 40.5 115.1 40.6C115.2 40.8 115.3 41.1 115.3 41.4C115.2 42.6 114.4 43.5 113.6 44.1Z" fill="white"/>
<path d="M125.3 49.3H124.4V46.1H122.1L119.6 49.3H118.5L121.1 46C119.8 45.8 118.8 44.9 118.8 43.6C118.8 42.1 120 41.1 121.9 41.1H125.3V49.3ZM121.8 42C120.5 42 119.7 42.6 119.7 43.6C119.7 44.7 120.6 45.3 121.9 45.3H124.3V42H121.8Z" fill="white"/>
<path d="M132.1 42H129.3V41.1H135.7V42H133V49.3H132.1V42Z" fill="white"/>
<path d="M139.8 41.1H140.7V44.7H145.4V41.1H146.3V49.3H145.4V45.6H140.7V49.3H139.8V41.1Z" fill="white"/>
<path d="M157 49.3V42.5L151.8 49.3H151V41.1H151.9V47.7L157 41.1H157.9V49.3H157Z" fill="white"/>
<path d="M162.6 41.1H163.5V44.7H164.8L168.2 41.1H169.4L165.6 45L169.6 49.2H168.4L164.9 45.4H163.5V49.2H162.6V41.1Z" fill="white"/>
<path d="M179.4 49.3V42.5L174.2 49.3H173.4V41.1H174.3V47.7L179.4 41.1H180.3V49.3H179.4Z" fill="white"/>
<path d="M190.9 41.1H191.8V49.3H190.9V41.1Z" fill="white"/>
<path d="M200.3 48.5C197.6 48.5 196.1 47.2 196.1 45.2C196.1 43.3 197.6 41.9 200.3 41.9V41H201.2V41.9C203.9 42 205.4 43.2 205.4 45.2C205.4 47.1 203.9 48.5 201.2 48.5V49.5H200.3V48.5ZM197 45.2C197 46.6 198.1 47.6 200.3 47.7V42.8C198.1 42.8 197 43.8 197 45.2ZM204.5 45.2C204.5 43.8 203.4 42.8 201.2 42.8V47.7C203.4 47.6 204.5 46.6 204.5 45.2Z" fill="white"/>
<path d="M55.1559 3H2.15594V55H55.1559V3Z" fill="#196C43"/>
<path d="M18.9429 33.2761H18.2226V10.0116H26.3616V10.7319H18.9429V33.2761Z" fill="white"/>
<path d="M33.7082 21.2477C33.7082 21.2477 33.7802 20.8156 33.9243 20.1673C33.9963 19.5191 34.0683 18.6548 34.0683 17.7184C33.9963 16.8541 33.8523 15.9898 33.7082 15.3416C33.6362 15.1975 33.6362 15.0535 33.5642 14.9094C33.4921 14.7654 33.4921 14.6933 33.4201 14.5493C33.3481 14.3332 33.3481 14.2612 33.3481 14.2612L33.6362 14.1171C33.6362 14.1171 33.6362 14.1892 33.7082 14.4052C33.7082 14.4773 33.7802 14.6213 33.8523 14.7654C33.8523 14.9094 33.9243 15.0535 33.9963 15.1975C34.1404 15.8458 34.2844 16.7821 34.2844 17.6464C34.2844 18.5107 34.2124 19.4471 34.0683 20.0953C33.9243 20.7435 33.8523 21.1757 33.8523 21.1757L33.7082 21.2477Z" fill="#DEA527"/>
<path d="M31.6195 23.3365C31.4754 24.5609 31.3314 25.6413 31.3314 25.6413C31.3314 25.7854 31.3314 25.7854 31.3314 25.8574C31.3314 25.8574 31.4034 25.9294 31.4754 25.7854C31.4754 25.7854 31.6195 25.6413 31.6915 25.5693C31.7635 25.4253 31.9076 25.2812 32.0517 25.1371C32.3398 24.849 32.6999 24.4169 32.916 24.1288C33.2041 23.6966 33.4202 23.2645 33.5642 22.9043C33.6362 22.5442 33.6362 22.1841 33.5642 21.896C33.5642 22.9764 32.6279 23.8407 31.6915 24.777C31.7635 24.2728 31.7636 23.8407 31.8356 23.5526C31.9076 23.2645 31.9076 23.0484 31.9796 22.9043C32.0517 22.7603 32.0517 22.6162 32.1957 22.4722C32.2677 22.3281 32.4118 22.1841 32.6999 21.968C32.4838 22.112 32.2677 22.2561 32.0517 22.4001C31.8356 22.6883 31.6915 22.9764 31.6195 23.3365Z" fill="#DEA527"/>
<path d="M28.0182 22.6882C28.0182 22.6882 28.0182 22.6882 28.2343 22.6882C28.2343 22.6882 28.2343 22.6882 28.3063 22.6882C28.3783 22.6882 28.3783 22.6882 28.4504 22.6162C28.5944 22.6162 28.8105 22.5442 29.0266 22.4722C29.2426 22.4001 29.5307 22.4001 29.8909 22.4001C30.179 22.4001 30.5391 22.4001 30.8992 22.4001C31.3314 22.4001 31.6195 22.2561 31.9076 22.1841C32.1237 22.04 32.3398 21.896 32.5558 21.7519C32.2677 21.896 32.0517 21.968 31.8356 21.968C31.6915 22.04 31.5475 22.04 31.3314 22.04C31.1153 22.04 30.9713 22.04 30.6111 22.04C30.323 22.04 29.8909 22.04 29.3147 22.04C29.9629 21.5358 30.6832 21.1037 31.3314 20.8876C31.4755 20.8156 31.6915 20.8156 31.8356 20.7435C31.9796 20.7435 32.1237 20.7435 32.2677 20.7435C32.5558 20.7435 32.8439 20.8156 33.06 20.9596C32.988 20.8156 32.6999 20.5995 32.2677 20.4554C32.0517 20.3834 31.7636 20.3834 31.4755 20.4554C31.1874 20.5275 30.8272 20.5995 30.4671 20.7435C29.9629 20.9596 29.3867 21.3197 28.9545 21.6799C28.7385 21.8239 28.5224 22.04 28.3783 22.1841C28.2343 22.3281 28.0902 22.4001 28.0902 22.4722C27.9462 22.5442 27.9462 22.6162 28.0182 22.6882Z" fill="#DEA527"/>
<path d="M29.0986 25.7854C29.0986 26.4336 29.0986 27.0098 29.0986 27.442C29.0986 27.6581 29.0986 27.8021 29.0986 27.9462C29.0986 28.0902 29.0986 28.1622 29.0986 28.1622C29.0986 28.3063 29.0986 28.3063 29.1706 28.3063C29.1706 28.3063 29.2426 28.3783 29.3147 28.2343C29.3867 28.1622 29.6028 27.8741 29.8188 27.586C30.0349 27.2259 30.323 26.8658 30.6111 26.5056C30.7552 26.2896 30.8992 26.0735 30.9713 25.8574C31.0433 25.6413 31.1153 25.4252 31.1873 25.2812C31.2594 24.9211 31.1873 24.5609 31.0433 24.2728C31.1153 25.3532 30.251 26.2896 29.4587 27.2979C29.4587 27.0098 29.4587 26.7937 29.4587 26.6497C29.4587 26.4336 29.4587 26.2896 29.4587 26.1455C29.4587 25.8574 29.4587 25.6413 29.5307 25.4973C29.6028 25.1371 29.7468 24.9931 30.1069 24.4889C29.8909 24.633 29.6748 24.777 29.5307 24.9931C29.3146 25.0651 29.1706 25.3532 29.0986 25.7854Z" fill="#DEA527"/>
<path d="M25.4252 25.4253C25.4252 25.4253 25.4252 25.4253 25.6413 25.4253C25.6413 25.4253 25.7133 25.4253 25.8574 25.3532C26.0014 25.2812 26.2175 25.2092 26.4336 25.1371C26.9378 24.9931 27.586 24.849 28.2343 24.849C28.6664 24.777 28.9545 24.705 29.2426 24.5609C29.4587 24.4169 29.6748 24.2728 29.8909 24.1288C29.3146 24.4169 29.0986 24.4889 28.7384 24.5609C28.5224 24.5609 28.3783 24.5609 28.0182 24.633C27.8741 24.633 27.658 24.633 27.442 24.705C27.2259 24.705 26.9378 24.777 26.6497 24.849C27.2259 24.2728 27.9461 23.7686 28.5944 23.4805C28.8825 23.3365 29.2426 23.2645 29.5307 23.2645C29.8188 23.2645 30.1069 23.2645 30.323 23.4085C30.179 23.2645 29.9629 23.0484 29.5307 22.9764C29.0986 22.9043 28.5224 22.9764 27.8021 23.4085C27.2979 23.6246 26.7937 24.0568 26.3616 24.4889C25.9294 24.849 25.5693 25.2812 25.4973 25.3532C25.4252 25.3532 25.4252 25.4253 25.4252 25.4253Z" fill="#DEA527"/>
<path d="M27.2259 28.3783C27.442 29.0265 27.586 29.5307 27.7301 29.8909C27.8021 30.1069 27.8741 30.251 27.8741 30.323C27.9461 30.395 27.9461 30.4671 27.9461 30.4671C28.0182 30.6111 28.0182 30.6111 28.0902 30.6111C28.0902 30.6111 28.1622 30.6111 28.2342 30.5391C28.2342 30.4671 28.3783 30.179 28.4503 29.8188C28.5944 29.4587 28.7384 29.0266 28.8105 28.6664C29.0986 27.6581 28.9545 26.8658 28.5224 26.4336C28.7384 26.9378 28.6664 27.442 28.5224 28.0182C28.3783 28.5944 28.1622 29.1706 27.9461 29.7468C27.8741 29.5307 27.8021 29.3147 27.7301 29.0986C27.658 28.8825 27.586 28.7384 27.586 28.5944C27.514 28.3063 27.442 28.0902 27.442 27.9462C27.442 27.586 27.442 27.3699 27.7301 26.7937C27.658 26.8658 27.586 27.0098 27.514 27.0818C27.442 27.1539 27.3699 27.2979 27.2979 27.442C27.2259 27.658 27.1539 27.9462 27.2259 28.3783Z" fill="#DEA527"/>
<path d="M23.6246 29.3147C23.6246 29.3147 23.6246 29.3147 23.8407 29.1706C23.8407 29.1706 23.8407 29.1706 23.9127 29.0986C23.9127 29.0986 23.9847 29.0265 24.0568 28.9545C24.2008 28.8825 24.3449 28.7384 24.5609 28.5944C24.9931 28.3063 25.5693 27.9462 26.2175 27.7301C26.6497 27.514 26.8658 27.2979 27.0819 27.1539C27.1539 27.0818 27.2259 26.9378 27.2979 26.8658C27.37 26.7937 27.442 26.6497 27.514 26.5777C27.0098 27.0098 26.8658 27.1539 26.5056 27.2979C26.3616 27.3699 26.1455 27.442 25.8574 27.586C25.7134 27.6581 25.5693 27.7301 25.3532 27.8021C25.1372 27.8741 24.9211 28.0182 24.633 28.1622C24.9931 27.3699 25.5693 26.7217 26.0735 26.2175C26.6497 25.7854 27.2259 25.5693 27.7301 25.6413C27.586 25.4973 27.2979 25.4252 26.7938 25.4973C26.3616 25.5693 25.7854 25.7854 25.2092 26.4336C24.849 26.7937 24.4169 27.442 24.1288 27.9462C23.8407 28.5224 23.6246 28.9545 23.6246 29.0986C23.5526 29.3147 23.6246 29.3147 23.6246 29.3147Z" fill="#DEA527"/>
<path d="M26.2175 31.1153C26.4336 31.3314 26.5777 31.5475 26.7937 31.7635C26.9378 31.9796 27.1539 32.1237 27.2259 32.2677C27.3699 32.4118 27.442 32.4838 27.514 32.5558C27.586 32.6279 27.658 32.6279 27.658 32.6279C27.8021 32.6999 27.8021 32.6999 27.8021 32.6999C27.8021 32.6999 27.8741 32.6999 27.8741 32.5558C27.8741 32.4838 27.8741 32.4118 27.8741 32.3397C27.8741 32.2677 27.8741 32.1957 27.8741 32.1237C27.8741 32.0516 27.8741 31.9796 27.8741 31.9076C27.8741 31.5475 27.8021 31.1873 27.7301 30.8272C27.7301 30.6832 27.7301 30.6111 27.658 30.4671C27.658 30.3951 27.586 30.251 27.586 30.179C27.586 30.1069 27.514 29.9629 27.514 29.8909C27.514 29.8188 27.442 29.7468 27.3699 29.6028C27.2259 29.3146 27.0098 29.0265 26.7217 28.8825C26.7937 28.9545 26.8658 29.0986 26.9378 29.1706C27.0098 29.2426 27.0818 29.3867 27.0818 29.5307C27.1539 29.7468 27.2259 30.0349 27.2259 30.251C27.2979 30.7552 27.2979 31.3314 27.2979 31.8356C26.9378 31.5475 26.7217 31.2594 26.5776 31.0433C26.4336 30.8272 26.2895 30.6831 26.2175 30.5391C26.1455 30.395 26.0735 30.251 26.0735 30.1069C26.0735 30.0349 26.0735 29.9629 26.0735 29.8188C26.0735 29.7468 26.0735 29.6028 26.0735 29.4587C26.0735 29.6028 26.0014 29.6748 26.0014 29.8188C26.0014 29.9629 25.9294 30.0349 25.9294 30.179C25.9294 30.323 25.9294 30.4671 26.0014 30.6111C26.0014 30.6832 26.0735 30.7552 26.0735 30.8272C26.1455 30.9713 26.2175 31.0433 26.2175 31.1153Z" fill="#DEA527"/>
<path d="M23.5526 33.2041C23.5526 33.2041 23.5526 33.2041 23.6966 33.06C23.6966 33.06 23.6966 32.988 23.7686 32.8439C23.8407 32.6999 23.9127 32.5558 24.0567 32.3398C24.2008 32.1237 24.3448 31.9076 24.4889 31.6915C24.705 31.4754 24.9211 31.2594 25.1371 31.0433C25.2092 30.9713 25.2812 30.8992 25.3532 30.8272C25.4252 30.7552 25.4252 30.6832 25.4973 30.6111C25.5693 30.4671 25.6413 30.323 25.7133 30.251C25.7854 30.1069 25.7854 30.0349 25.8574 29.8909C25.8574 29.7468 25.9294 29.6748 25.9294 29.5307C25.8574 29.6748 25.7854 29.7468 25.7133 29.8909C25.6413 29.9629 25.6413 30.1069 25.5693 30.179C25.4973 30.323 25.4252 30.4671 25.2812 30.5391C25.1371 30.6831 24.9931 30.7552 24.777 30.9713C24.5609 31.1873 24.2728 31.4754 23.9127 31.9076C23.9847 31.0433 24.2008 30.251 24.4889 29.6748C24.633 29.3867 24.849 29.0986 25.0651 28.9545C25.2092 28.8825 25.2812 28.8105 25.4252 28.7384C25.5693 28.6664 25.6413 28.6664 25.7854 28.5944C25.6413 28.5224 25.2812 28.5224 24.9211 28.7384C24.777 28.8105 24.5609 28.9545 24.3449 29.2426C24.1288 29.4587 23.9847 29.7468 23.8407 30.1069C23.6246 30.6111 23.4805 31.2594 23.4085 31.8356C23.4085 31.9796 23.4085 32.1237 23.4085 32.2677C23.4085 32.4118 23.4085 32.5558 23.4085 32.6279C23.4085 32.8439 23.4085 32.988 23.4085 33.06C23.4805 33.2041 23.5526 33.2761 23.5526 33.2041Z" fill="#DEA527"/>
<path d="M26.5056 33.9964C27.0098 34.2845 27.514 34.5005 27.8741 34.6446C28.0182 34.7166 28.1622 34.7886 28.3063 34.7886C28.3783 34.7886 28.4503 34.8607 28.4503 34.8607C28.5944 34.8607 28.5944 34.8607 28.5944 34.8607C28.5944 34.8607 28.6664 34.7886 28.5944 34.7166C28.5224 34.6446 28.3783 34.4285 28.2343 34.1404C28.0902 33.8523 27.8741 33.4922 27.7301 33.2041C27.586 32.988 27.514 32.8439 27.3699 32.6999C27.2259 32.5558 27.1539 32.4118 27.0098 32.2677C26.7217 32.0517 26.4336 31.9076 26.1455 31.8356C26.3616 31.9796 26.5056 32.1237 26.7217 32.3398C26.8658 32.5558 27.0098 32.6999 27.1539 32.916C27.3699 33.3481 27.586 33.8523 27.8741 34.3565C27.6581 34.2845 27.442 34.2124 27.2979 34.1404C27.1539 34.0684 27.0098 33.9964 26.8658 33.9243C26.6497 33.7803 26.5056 33.7082 26.3616 33.5642C26.2175 33.4922 26.1455 33.3481 26.0735 33.2041C26.0735 33.132 26.0014 33.06 25.9294 32.916C25.8574 32.8439 25.8574 32.6999 25.7854 32.5558C25.7854 32.6279 25.7854 32.6999 25.7854 32.6999V32.8439C25.7854 32.988 25.7854 33.06 25.8574 33.2041C25.9294 33.3481 25.9294 33.4201 26.0735 33.5642C26.2175 33.7082 26.3616 33.8523 26.5056 33.9964Z" fill="#DEA527"/>
<path d="M24.849 36.9494C24.849 36.9494 24.849 36.9494 24.9211 36.7334C24.9211 36.7334 24.9211 36.6613 24.9211 36.5173C24.9211 36.3732 24.9211 36.1571 24.9931 35.9411C25.0651 35.4369 25.2092 34.8607 25.4973 34.2845C25.5693 34.0684 25.6413 33.9243 25.6413 33.7803C25.6413 33.6362 25.7133 33.4922 25.7133 33.3481C25.7133 33.2041 25.7133 33.06 25.7133 32.988V32.7719C25.7133 32.6999 25.7133 32.6279 25.7133 32.5558C25.7133 32.6999 25.6413 32.8439 25.6413 32.916C25.6413 33.06 25.6413 33.132 25.5693 33.2041C25.5693 33.3481 25.4973 33.4922 25.4252 33.6362C25.3532 33.7803 25.2812 33.9964 25.1371 34.2845C25.0651 34.4285 24.9931 34.5726 24.9211 34.7887C24.849 35.0047 24.777 35.2208 24.705 35.5089C24.4169 34.7166 24.3448 33.8523 24.4169 33.2041C24.4889 32.8439 24.5609 32.5558 24.705 32.2677C24.849 32.0517 25.0651 31.8356 25.2812 31.6915C25.0651 31.6915 24.777 31.7635 24.5609 32.1237C24.2728 32.4118 24.0567 32.988 23.9847 33.8523C23.9847 33.9964 23.9847 34.1404 23.9847 34.2845C23.9847 34.4285 23.9847 34.5726 24.0567 34.7166C24.0567 34.8607 24.1288 35.0047 24.1288 35.1488C24.1288 35.2928 24.2008 35.4369 24.2728 35.5809C24.4169 36.1571 24.705 36.5893 24.777 36.7334C24.777 36.9494 24.849 36.9494 24.849 36.9494Z" fill="#DEA527"/>
<path d="M29.8909 37.0935C30.0349 37.0935 30.0349 37.0935 30.0349 37.0935C30.0349 37.0935 30.1069 37.0215 30.0349 36.9494C30.0349 36.8774 29.9629 36.8054 29.8188 36.7333C29.7468 36.6613 29.6028 36.5173 29.4587 36.3732C29.1706 36.0851 28.9545 35.797 28.6664 35.5089C28.5224 35.3649 28.3063 35.2208 28.1622 35.0767C28.0902 35.0047 28.0182 34.9327 27.9462 34.9327C27.8741 34.8607 27.8021 34.8607 27.7301 34.7886C27.586 34.7166 27.442 34.6446 27.2259 34.5726C27.0818 34.5005 26.9378 34.5005 26.7937 34.5005C27.2979 34.6446 27.6581 35.0047 28.0182 35.3648C28.3783 35.725 28.7384 36.1571 29.0986 36.6613C28.9545 36.6613 28.8825 36.5893 28.7384 36.5893C28.6664 36.5893 28.5224 36.5173 28.4503 36.5173C28.2343 36.4452 28.0902 36.4452 27.9462 36.3732C27.6581 36.3012 27.514 36.2292 27.37 36.1571C27.2259 36.0851 27.0818 36.0131 27.0098 35.869C26.8658 35.725 26.7937 35.5809 26.6497 35.3648C26.7217 35.5809 26.7937 35.797 26.9378 36.0131C27.0818 36.2292 27.2979 36.4452 27.6581 36.5893C27.7301 36.5893 27.8021 36.6613 27.8741 36.6613C27.9462 36.6613 28.0182 36.7333 28.0902 36.7333C28.2343 36.8054 28.3783 36.8054 28.5224 36.8774C28.8105 36.9494 29.0266 37.0214 29.2426 37.0214C29.4587 37.0935 29.6028 37.0935 29.6748 37.1655C29.8188 37.0935 29.8909 37.0935 29.8909 37.0935Z" fill="#DEA527"/>
<path d="M27.6581 39.9025C27.6581 39.9025 27.6581 39.9025 27.586 39.6864C27.586 39.6864 27.586 39.6144 27.514 39.4703C27.442 39.3263 27.37 39.1102 27.2979 38.8941C27.2259 38.6781 27.1539 38.3899 27.0819 38.1018C27.0819 37.9578 27.0098 37.8137 27.0098 37.5977C27.0098 37.5256 27.0098 37.4536 27.0098 37.3816C27.0098 37.3096 27.0098 37.2375 27.0098 37.0935C26.9378 36.6613 26.8658 36.3732 26.7217 36.0851C26.5777 35.869 26.4336 35.653 26.3616 35.4369C26.4336 35.725 26.5777 35.9411 26.5777 36.0851C26.6497 36.2292 26.6497 36.3732 26.6497 36.5893C26.6497 36.8054 26.6497 37.0215 26.7217 37.3096C26.7217 37.4536 26.7937 37.6697 26.7937 37.8858C26.7937 38.0298 26.8658 38.1018 26.8658 38.2459C26.8658 38.3899 26.9378 38.534 26.9378 38.6781C26.3616 38.1018 25.9294 37.4536 25.6413 36.7333C25.3532 36.0851 25.3532 35.3649 25.6413 34.9327C25.4973 35.0047 25.4252 35.1488 25.3532 35.3648C25.2812 35.5089 25.2092 35.725 25.2092 35.9411C25.2092 36.0851 25.2092 36.1571 25.2092 36.3012C25.2092 36.4452 25.2092 36.5893 25.2812 36.7333C25.3532 37.0215 25.4253 37.3096 25.6413 37.6697C25.9294 38.1739 26.2896 38.6781 26.7217 39.1102C26.9378 39.3263 27.0818 39.4703 27.2259 39.6144C27.37 39.7584 27.514 39.8305 27.514 39.9025C27.586 39.9745 27.6581 39.9025 27.6581 39.9025Z" fill="#DEA527"/>
<path d="M30.9712 40.2626C31.0433 40.2626 31.1153 40.2626 31.1153 40.1906C31.1153 40.1906 31.1153 40.1186 31.1153 40.0466C31.1153 39.9745 31.0433 39.9025 30.8992 39.7585C30.8272 39.6864 30.7552 39.6144 30.6831 39.5424C30.6111 39.4704 30.5391 39.3983 30.4671 39.2543C30.395 39.1823 30.323 39.0382 30.251 38.9662C30.179 38.8941 30.1069 38.7501 30.0349 38.6781C29.8909 38.462 29.7468 38.3179 29.6028 38.1739C29.2426 37.7417 28.8825 37.4536 28.5224 37.2375C28.3783 37.1655 28.1622 37.0215 28.0182 37.0215C27.8741 36.9494 27.658 36.8774 27.514 36.8774C28.0902 37.1655 28.5224 37.5256 28.8825 37.9578C29.3147 38.39 29.6748 38.8941 30.0349 39.4704C29.3867 39.3263 28.7384 39.0382 28.2343 38.606C27.7301 38.1739 27.3699 37.6697 27.2259 37.0215C27.2259 37.2375 27.2259 37.3816 27.2979 37.5977C27.3699 37.8138 27.442 37.9578 27.514 38.1739C27.7301 38.606 28.0902 38.9662 28.5944 39.3263C29.0265 39.6144 29.5307 39.8305 30.0349 39.9745C30.179 40.0466 30.251 40.0466 30.395 40.0466C30.4671 40.0466 30.6111 40.1186 30.6831 40.1186C30.8272 40.1906 30.9712 40.1906 30.9712 40.2626Z" fill="#DEA527"/>
<path d="M31.1153 12.3885C29.8188 11.3081 28.0902 10.7319 26.4336 10.7319V10.0116C28.3063 10.0116 30.1069 10.6599 31.6195 11.8123L31.1153 12.3885Z" fill="white"/>
<path d="M28.4503 43.5038V42.7835C33.7083 42.7835 37.9578 38.534 37.9578 33.2761C37.9578 30.251 36.5173 27.3699 34.0684 25.5693L34.4285 24.9931C37.0215 26.9378 38.606 30.0349 38.606 33.2761C38.6781 38.8941 34.0684 43.5038 28.4503 43.5038Z" fill="white"/>
<path d="M28.4503 43.5038H18.2226V33.2761H18.9429V42.7835H28.4503V43.5038Z" fill="white"/>
<path d="M53.0113 53.0112H0V0H53.0113V53.0112ZM0.720262 52.291H52.291V0.720262H0.720262V52.291Z" fill="white"/>
</svg>
