<svg width="60" height="60" viewBox="0 0 60 60" fill="none" xmlns="http://www.w3.org/2000/svg">
<path d="M51.7778 9.62456L41.7778 23.8842L40.5556 35L26 23.8842L35 19.7298L45.5556 5.02105C46.2222 3.78596 47.5556 3 49 3C51.2222 3 53 4.79649 53 7.04211C52.7778 8.05263 52.4444 8.95088 51.7778 9.62456Z" stroke="white" stroke-miterlimit="10"/>
<path d="M41 34.8857L34.7458 48.6303C34.7458 48.6303 29.9699 59.2961 26.1037 56.5472C23.9431 55.0078 24.9666 53.2485 22.6923 53.2485C20.4181 53.2485 19.2809 54.2381 18.3712 52.1489C17.4615 49.9498 15.0736 52.2589 13.4816 51.0494C11.8896 49.8398 7 53.5784 7 49.51V45.4416L15.8696 34.8857L25.99 24" stroke="white" stroke-miterlimit="10"/>
<path d="M16.0067 35C16.0067 35 15.6795 39.8548 19.6053 37.5968C23.5312 35.3387 24.5126 34.0968 24.2945 37.5968C24.0764 41.0968 22.8769 44.0323 28.2203 44.4839C33.4547 45.0484 33.7819 46.7419 34 49" stroke="white" stroke-miterlimit="10"/>
<path d="M48.5 8C49.3284 8 50 7.32843 50 6.5C50 5.67157 49.3284 5 48.5 5C47.6716 5 47 5.67157 47 6.5C47 7.32843 47.6716 8 48.5 8Z" stroke="white" stroke-miterlimit="10"/>
</svg>
