<svg width="60" height="60" viewBox="0 0 60 60" fill="none" xmlns="http://www.w3.org/2000/svg">
<path d="M42.3729 57H16.6271L14 51H45L42.3729 57Z" stroke="white" stroke-miterlimit="10"/>
<path d="M38 32.2762L21 26V51H38V32.2762Z" stroke="white" stroke-miterlimit="10"/>
<path d="M37 16.4615C37 12.2615 29.4444 3 29.4444 3C29.4444 3 22 12.3692 22 16.4615C22 20.5538 25.2222 24 29.5556 24C33.8889 24 37 20.6615 37 16.4615Z" stroke="white" stroke-miterlimit="10"/>
<path d="M33 16.0714C33 13.9388 29.5 9 29.5 9C29.5 9 26 13.8265 26 16.0714C26 18.3163 27.5441 20 29.5 20C31.4559 20 33 18.3163 33 16.0714Z" stroke="white" stroke-miterlimit="10"/>
</svg>
