<svg width="60" height="60" viewBox="0 0 60 60" fill="none" xmlns="http://www.w3.org/2000/svg">
<path d="M57 31H47V22" stroke="white" stroke-miterlimit="10"/>
<path d="M12.5 46C16.0899 46 19 43.0899 19 39.5C19 35.9101 16.0899 33 12.5 33C8.91015 33 6 35.9101 6 39.5C6 43.0899 8.91015 46 12.5 46Z" stroke="white" stroke-miterlimit="10"/>
<path d="M41.5 46C45.0898 46 48 43.0899 48 39.5C48 35.9101 45.0898 33 41.5 33C37.9101 33 35 35.9101 35 39.5C35 43.0899 37.9101 46 41.5 46Z" stroke="white" stroke-miterlimit="10"/>
<path d="M3 14V40H6.1157C6.1157 39.8926 6.1157 39.7851 6.1157 39.6777C6.1157 36.0248 9.12397 33.0165 12.7769 33.0165C16.4298 33.0165 19.438 36.0248 19.438 39.6777C19.438 39.7851 19.438 39.8926 19.438 40H35.3388C35.3388 39.8926 35.3388 39.7851 35.3388 39.6777C35.3388 36.0248 38.3471 33.0165 42 33.0165V14H3Z" stroke="white" stroke-miterlimit="10"/>
<path d="M50.1818 22H42V33.1176C45.5664 33.1176 48.5035 36.0824 48.5035 39.6824C48.5035 39.7882 48.5035 39.8941 48.5035 40H57V31.5294L50.1818 22Z" stroke="white" stroke-miterlimit="10"/>
</svg>
