<svg width="60" height="60" viewBox="0 0 60 60" fill="none" xmlns="http://www.w3.org/2000/svg">
<path d="M39.9412 27L57 44.0588L44.0588 57L27 39.9412" stroke="white" stroke-miterlimit="10"/>
<path d="M20.4046 33L3 15.5954L15.5954 3L33 20.4046" stroke="white" stroke-miterlimit="10"/>
<path d="M14 17C15.6569 17 17 15.6569 17 14C17 12.3431 15.6569 11 14 11C12.3431 11 11 12.3431 11 14C11 15.6569 12.3431 17 14 17Z" stroke="white" stroke-miterlimit="10"/>
<path d="M20 20L26 13" stroke="white" stroke-miterlimit="10"/>
<path d="M25 22L30 17" stroke="white" stroke-miterlimit="10"/>
<path d="M35 35L41 29" stroke="white" stroke-miterlimit="10"/>
<path d="M41 37L45 32" stroke="white" stroke-miterlimit="10"/>
<path d="M43 43L49 36" stroke="white" stroke-miterlimit="10"/>
<path d="M48 45L53 40" stroke="white" stroke-miterlimit="10"/>
<path d="M47.5269 6.66002L8.27368 45.9132L14.9393 52.5788L54.1925 13.3257L47.5269 6.66002Z" stroke="white" stroke-miterlimit="10"/>
<path d="M14.9872 52.5776L8.23717 45.944L4.28027 56.6509L14.9872 52.5776Z" stroke="white" stroke-miterlimit="10"/>
<path d="M54.2071 13.2414L47.5735 6.60773C49.4356 4.74566 52.345 4.74566 54.2071 6.60773C56.0692 8.4698 56.0692 11.3793 54.2071 13.2414Z" stroke="white" stroke-miterlimit="10"/>
<path d="M5.90967 52.1121C5.90967 52.1121 7.77174 50.4828 8.0045 51.8793C8.23725 53.2759 7.18984 54.4397 8.70277 54.9052" stroke="white" stroke-miterlimit="10"/>
</svg>
