<svg width="60" height="60" viewBox="0 0 60 60" fill="none" xmlns="http://www.w3.org/2000/svg">
<g clip-path="url(#clip0_152_381)">
<path d="M43.386 39.0018L25.5669 21.1827L21.1828 25.5668" stroke="white" stroke-miterlimit="10"/>
<path d="M21.1828 25.5668L44.2345 48.6185L48.6186 44.2344L43.386 39.0018" stroke="white" stroke-miterlimit="10"/>
<path d="M21.2474 25.5579L25.5608 21.2445L22.6617 18.3454L18.3483 22.6587L21.2474 25.5579Z" stroke="white" stroke-miterlimit="10"/>
<path d="M48.6186 44.2344L44.2346 48.6185L44.6588 51.3055L51.3056 44.6587L48.6186 44.2344Z" stroke="white" stroke-miterlimit="10"/>
<path d="M18.2836 22.6677C18.2836 22.6677 13.7582 19.1321 11.9904 20.8999C10.2226 22.6677 10.7883 26.0618 10.7883 26.0618C10.7883 26.0618 6.54567 19.5564 9.86907 15.3845L15.1724 10.0812L18.9908 10.9297L20.1221 9.79832L20.1221 7.95984L21.9606 6.12137L26.274 10.4347L24.3648 12.3439L22.8091 12.2025L21.607 13.4046C21.607 13.4046 20.5464 16.3037 22.597 18.3543" stroke="white" stroke-miterlimit="10"/>
<path d="M19.9807 12.6267C19.9807 12.6267 18.2129 15.243 20.1928 18.0714" stroke="white" stroke-miterlimit="10"/>
</g>
<defs>
<clipPath id="clip0_152_381">
<rect width="51" height="23.4" fill="white" transform="translate(20.5464 4) rotate(45)"/>
</clipPath>
</defs>
</svg>
