<svg width="173" height="202" viewBox="0 0 173 202" fill="none" xmlns="http://www.w3.org/2000/svg">
<path d="M100.262 81.4696V73.6575L149.942 84.0451L154.365 78.8513V85.7191L149.513 91.5567L100.262 81.4696Z" stroke="white" stroke-miterlimit="10"/>
<path d="M149.47 82.1564L103.396 72.241C103.396 72.241 102.323 59.8789 110.61 55.4577C110.953 55.286 111.426 55.6294 111.812 55.4577C111.812 55.4577 120.786 63.1411 127.313 65.7165C133.883 68.292 147.795 76.8338 150.371 81.2121L149.47 82.1564ZM149.47 82.1564C149.47 82.1564 143.501 74.3442 126.626 66.2745C115.591 61.0378 110.653 55.4148 110.653 55.4148L110.052 44.4263" stroke="white" stroke-miterlimit="10"/>
<path d="M151.015 80.7829L152.218 79.4522C152.218 79.4522 149.77 68.6354 151.616 60.0506C153.463 51.4658 159.26 50.0493 159.174 30.6477C159.088 11.2461 145.777 2.83301 141.783 1.24482C137.79 -0.343363 127.184 -1.67401 120.099 10.2159C120.099 10.2159 111.641 8.0268 107.604 14.8088C103.568 21.5908 104.126 32.4076 106.058 37.3009C107.991 42.1942 116.536 56.4879 133.153 65.8453C149.77 75.2027 151.015 80.7829 151.015 80.7829Z" stroke="white" stroke-miterlimit="10"/>
<path d="M151.015 80.7828C151.015 80.7828 146.507 64.858 151.359 56.1445C157.413 45.1989 161.149 28.7161 153.935 15.4955C146.721 2.27496 138.091 -0.257549 130.061 1.28771" stroke="white" stroke-miterlimit="10"/>
<path d="M154.365 78.8513L152.003 78.5079" stroke="white" stroke-miterlimit="10"/>
<path d="M100.262 73.6575L103.396 72.1981" stroke="white" stroke-miterlimit="10"/>
<path d="M50.1095 115.036L24.5181 134.223L24.7757 137.4C24.7757 137.4 35.9827 138.945 42.3376 146.027C48.6926 153.11 61.7889 157.488 74.1123 158.432C86.4786 159.377 99.3602 162.424 104.341 164.313L160.161 87.9082V85.1611L154.322 84.088" stroke="white" stroke-miterlimit="10"/>
<path d="M100.262 77.3918L61.1875 106.709" stroke="white" stroke-miterlimit="10"/>
<path d="M103.01 88.8525C103.01 88.8525 118.167 92.0718 123.878 96.3642C129.546 100.614 129.031 108.168 116.02 113.405C103.01 118.642 98.9738 131.734 98.9738 131.734C98.9738 131.734 76.3881 126.926 74.4987 116.238C72.6524 105.55 89.055 103.06 93.6923 99.5406C100.262 94.5614 102.795 92.5011 103.01 88.8525Z" stroke="white" stroke-miterlimit="10"/>
<path d="M160.204 85.1611L104.642 160.364C104.642 160.364 89.4843 154.698 74.8422 154.784C60.2001 154.912 46.1162 146.156 42.4235 142.336C38.7308 138.516 24.5181 134.223 24.5181 134.223" stroke="white" stroke-miterlimit="10"/>
<path d="M29.6277 138.558L31.3023 153.367L102.795 178.692L155.524 101.429L156.426 93.102" stroke="white" stroke-miterlimit="10"/>
<path d="M102.022 163.497L102.795 178.692" stroke="white" stroke-miterlimit="10"/>
<path d="M26.6221 137.743L0.214844 158.561V160.364L115.892 201.742L172.785 101.172V99.0684L156.211 95.2911" stroke="white" stroke-miterlimit="10"/>
<path d="M0.214844 158.561L115.419 198.266L172.785 99.0684" stroke="white" stroke-miterlimit="10"/>
<path d="M76.8172 120.874C76.8172 120.874 72.6521 115.165 78.8782 111.173C85.1043 107.138 97.943 100.657 99.8323 97.9524C101.722 95.2482 102.881 92.3294 102.881 92.3294V89.8827" stroke="white" stroke-miterlimit="10"/>
<path d="M126.197 106.065C126.197 106.065 126.326 100.099 119.241 97.8236C112.156 95.5487 102.881 92.2864 102.881 92.2864" stroke="white" stroke-miterlimit="10"/>
<path d="M51.6983 124.565C51.6983 124.565 50.7537 125.123 50.7537 126.025C50.7537 126.926 51.5695 129.501 57.2374 129.072C62.9053 128.643 64.3223 124.694 61.5313 123.707" stroke="white" stroke-miterlimit="10"/>
<path d="M53.2011 123.02C53.2011 123.02 51.3118 123.363 51.6553 125.209C52.0417 127.098 56.078 126.84 57.0655 126.754C58.0531 126.669 62.9911 125.724 61.1877 123.106C60.7583 122.462 59.2125 122.591 59.2125 122.591" stroke="white" stroke-miterlimit="10"/>
<path d="M53.5017 124.909C53.5017 124.909 53.8022 122.977 53.0723 122.333C52.3423 121.689 49.8519 121.346 50.1524 118.47C50.453 115.594 49.5084 105.378 48.6925 102.846C47.8767 100.313 52.4711 98.6821 55.7774 98.8109C59.0837 98.9826 61.4024 99.9698 61.3594 101.386C61.2736 102.76 61.0589 114.221 61.66 117.826C62.2612 121.432 59.2554 120.917 58.9549 121.947C58.6543 122.977 59.0837 124.651 59.0837 124.651C59.0837 124.651 56.4644 126.153 53.5017 124.909Z" stroke="white" stroke-miterlimit="10"/>
<path d="M58.0961 101.3C58.0961 101.3 58.225 99.9698 56.2927 99.9269C54.4034 99.884 51.3977 99.8411 51.3977 101.3C51.3977 102.76 54.5752 102.717 55.1334 102.674C55.6916 102.631 57.9244 102.245 58.0961 101.3Z" stroke="white" stroke-miterlimit="10"/>
<path d="M61.2735 101.386C61.2735 101.386 59.8995 104.133 55.0904 104.348C50.2812 104.563 48.5208 102.459 48.5208 102.459" stroke="white" stroke-miterlimit="10"/>
</svg>
