<svg width="182" height="217" viewBox="0 0 182 217" fill="none" xmlns="http://www.w3.org/2000/svg">
<g clip-path="url(#clip0_313_392)">
<path d="M5.20093 131.926L103.981 90.7423L137.209 94.4785V98.2147L58.7607 148.546L5.20093 135.663V131.926Z" stroke="white" stroke-miterlimit="10"/>
<path d="M137.209 96.9264L168.717 100.791V103.368C168.717 103.368 140.089 133.429 132.653 139.399C125.216 145.411 109.741 141.417 93.149 144.252C76.5566 147.086 71.2265 158.552 71.2265 158.552C65.9393 159.969 50.1636 153.699 50.1636 153.699C50.1636 153.699 47.2406 149.791 51.4532 146.785" stroke="white" stroke-miterlimit="10"/>
<path d="M137.209 94.4785L58.4598 141.89L5.20093 131.926" stroke="white" stroke-miterlimit="10"/>
<path d="M58.7611 148.546L58.4602 141.89" stroke="white" stroke-miterlimit="10"/>
<path d="M168.718 100.748C168.718 100.748 138.069 127.031 131.234 132.399C124.4 137.767 108.452 137.638 91.9458 139.742C75.4394 141.847 68.3468 152.196 68.3468 152.196C60.0506 152.626 50.3359 147.73 50.3359 147.73" stroke="white" stroke-miterlimit="10"/>
<path d="M135.834 136.564C135.834 136.564 136.478 138.669 134.845 140.687C133.255 142.706 101.059 176.031 101.059 176.031L58.4601 162.804C58.4601 162.804 54.4194 162.288 55.666 157.307C56.0099 155.804 56.9986 156.147 56.9986 156.147" stroke="white" stroke-miterlimit="10"/>
<path d="M131.019 140.472L100.543 171.092L55.623 157.307" stroke="white" stroke-miterlimit="10"/>
<path d="M101.059 176.031L100.543 171.092" stroke="white" stroke-miterlimit="10"/>
<path d="M177.315 93.7055V90.0981L168.718 97.5705V101.393L177.315 93.7055Z" stroke="white" stroke-miterlimit="10"/>
<path d="M103.982 90.7423V89.5399L168.718 97.5705" stroke="white" stroke-miterlimit="10"/>
<path d="M119.284 84.3006H117.694L103.982 89.5399" stroke="white" stroke-miterlimit="10"/>
<path d="M160.164 84C160.164 84 167.686 84.3006 169.663 85.5031C171.684 86.7055 153.587 87.908 138.155 86.9202C122.723 85.9325 119.241 80.6932 119.241 80.6932V86.9202C119.241 86.9202 125.818 90.7423 138.026 91.5583C150.234 92.3742 169.147 92.2454 169.792 90.0981V85.6748" stroke="white" stroke-miterlimit="10"/>
<path d="M119.285 80.6932H124.916" stroke="white" stroke-miterlimit="10"/>
<path d="M177.314 90.0981L169.835 89.5399" stroke="white" stroke-miterlimit="10"/>
<path d="M159.648 85.7178C159.648 85.7178 160.593 82.454 161.84 79.8343C163.086 77.2147 165.795 68.9264 163.903 51.5767C162.012 34.227 160.12 26.454 162.657 13.7423C163.086 11.681 163.731 9.36196 163.731 9.36196C163.731 9.36196 147.612 9.10429 138.026 0.214722L124.615 6.22699C124.615 6.22699 129.515 15.6319 129.257 26.5828C128.999 37.5337 123.497 45.135 123.239 58.4049C122.981 71.6748 124.872 82.1534 124.872 82.1534C124.872 82.1534 137.94 86.0184 159.648 85.7178Z" stroke="white" stroke-miterlimit="10"/>
<path d="M166.224 16.6196L169.835 18.3804C169.835 18.3804 165.967 26.1534 166.224 40.6258C166.482 55.0982 167.17 66.7791 163.473 74.5951" stroke="white" stroke-miterlimit="10"/>
<path d="M163.258 11.3374L167.901 13.9141C167.901 13.9141 164.849 17.4785 164.591 25.5092C164.333 33.5828 165.923 52.8221 164.591 61.2822" stroke="white" stroke-miterlimit="10"/>
<path d="M127.065 12.2393L123.841 13.227C123.841 13.227 127.108 19.1104 126.291 29.4601C125.474 39.8528 123.755 50.5031 123.54 54.454" stroke="white" stroke-miterlimit="10"/>
<path d="M136.35 1.03067C136.35 1.03067 148.042 11.0368 161.582 10.6503C161.582 10.6503 158.573 21.4294 160.507 36.3313C162.442 51.2331 166.783 62.8282 161.883 79.8773" stroke="white" stroke-miterlimit="10"/>
<path d="M162.786 13.1411L165.924 14.6871C165.924 14.6871 161.668 16.6626 164.118 40.454" stroke="white" stroke-miterlimit="10"/>
<path d="M165.924 17.6933L168.245 18.9387C168.245 18.9387 163.602 26.8405 165.107 51.0614" stroke="white" stroke-miterlimit="10"/>
<path d="M172.285 98.2147L170.91 101.779C170.91 101.779 170.351 102.123 168.718 102.123" stroke="white" stroke-miterlimit="10"/>
<path d="M166.482 110.926C166.482 110.926 168.245 112.172 170.05 110.926C170.05 110.926 173.618 104.356 170.91 101.779" stroke="white" stroke-miterlimit="10"/>
<path d="M166.224 113.933C166.224 113.933 169.018 115.521 171.555 113.933C171.555 113.933 171.555 111.614 170.093 110.926" stroke="white" stroke-miterlimit="10"/>
<path d="M165.45 118.184C165.45 118.184 166.482 119.172 168.717 119.172C170.953 119.172 171.898 117.969 171.511 117.583C171.125 117.196 171.812 116.939 171.511 116.037C171.21 115.135 171.511 113.932 171.511 113.932" stroke="white" stroke-miterlimit="10"/>
<path d="M166.482 105.644L166.224 117.411L111.633 179.767" stroke="white" stroke-miterlimit="10"/>
<path d="M20.4182 139.313C20.4182 139.313 21.7937 141.159 21.6648 142.706C21.5358 144.252 19.4295 148.159 22.7824 157.264C22.7824 157.264 21.4069 160.485 21.5788 161.859C21.7937 163.276 22.9114 163.963 22.7824 166.196C22.6535 168.429 23.7711 168 22.7824 170.104C22.7824 170.104 25.5765 176.117 34.3885 172.337C34.3885 172.337 36.6237 170.663 37.1825 168.859C37.1825 168.859 35.2052 167.871 35.635 166.497C36.0649 165.08 34.5174 164.393 35.0762 163.276C35.635 162.159 36.3228 160.742 34.9473 157.135C34.9473 157.135 39.1598 148.975 34.9903 142.877" stroke="white" stroke-miterlimit="10"/>
<path d="M89.1516 172.337C89.1516 172.337 89.5815 176.975 91.8167 179.767C91.8167 179.767 88.1629 183.288 91.086 187.712C92.2466 189.472 89.8394 187.712 90.1403 191.362C90.1403 191.362 92.4615 196.387 101.102 195.957C109.742 195.528 113.653 189.816 111.676 187.282C109.742 184.748 114.9 184.92 110.429 178.736C110.429 178.736 114.47 171.264 111.676 164.994" stroke="white" stroke-miterlimit="10"/>
<path d="M37.2251 168.859L91.0858 187.712C91.0858 187.712 93.5789 192.779 101.101 192.393C108.581 192.006 111.289 185.822 111.289 185.822" stroke="white" stroke-miterlimit="10"/>
<path d="M171.383 112.773L181.785 113.933V116.552L111.633 216.699L0.34375 171.908V169.632L1.46137 168.258L22.7821 157.221C22.7821 157.221 27.8974 160.27 34.947 157.092" stroke="white" stroke-miterlimit="10"/>
<path d="M111.633 212.963L181.785 113.932L111.074 210.515L1.46137 168.258L0.34375 169.632L111.633 212.963Z" stroke="white" stroke-miterlimit="10"/>
<path d="M22.6101 164.35C22.6101 164.35 30.0896 168.258 35.1618 163.276" stroke="white" stroke-miterlimit="10"/>
<path d="M23.2122 168.859C23.2122 168.859 29.66 173.54 35.7639 167.528" stroke="white" stroke-miterlimit="10"/>
<path d="M91.7739 179.767C91.7739 179.767 94.8689 181.957 101.059 181.699C107.249 181.442 110.387 178.779 110.387 178.779" stroke="white" stroke-miterlimit="10"/>
</g>
<defs>
<clipPath id="clip0_313_392">
<rect width="182" height="217" fill="white"/>
</clipPath>
</defs>
</svg>
