<svg width="247" height="234" viewBox="0 0 247 234" fill="none" xmlns="http://www.w3.org/2000/svg">
<g clip-path="url(#clip0_313_1032)">
<path d="M189.805 103.904L110.616 164.802C110.616 164.802 92.9089 161.792 86.1347 160.759C75.3304 159.125 55.5223 150.094 55.5223 150.094L55.7796 152.674C67.7845 158.308 81.0755 163.34 88.9645 164.157C96.8534 164.974 110.873 167.554 110.873 167.554L189.805 106.184V103.904ZM189.805 103.904L151.304 98.7436L148.088 100.507L115.89 96.8083L10.3755 140.89C10.3755 140.89 9.00351 142.008 11.576 142.654C14.1484 143.299 58.4378 155.427 58.4378 155.427V156.975L11.8332 144.374C11.8332 144.374 10.0754 144.159 10.0325 143.299C9.94675 142.18 10.0325 141.621 10.0325 141.621" stroke="white" stroke-miterlimit="10"/>
<path d="M107.572 168.329L109.501 167.296" stroke="white" stroke-miterlimit="10"/>
<path d="M58.4375 155.427L60.1096 154.652" stroke="white" stroke-miterlimit="10"/>
<path d="M61.8246 155.427L58.4375 156.975" stroke="white" stroke-miterlimit="10"/>
<path d="M236.924 111.947V114.054L187.447 186.262C183.245 190.477 176.814 188.198 176.814 188.198L107.572 170.608V168.329L177.457 186.09C177.457 186.09 183.417 188.37 187.275 183.811C191.177 179.338 236.924 111.947 236.924 111.947ZM236.924 111.947L189.805 106.141" stroke="white" stroke-miterlimit="10"/>
<path d="M122.578 89.2821L115.847 92.4216" stroke="white" stroke-miterlimit="10"/>
<path d="M128.452 84.2073L122.578 86.4867V91.9916L229.25 104.55L233.065 100.292V93.7548L229.25 98.0985L201.253 95.002" stroke="white" stroke-miterlimit="10"/>
<path d="M241.04 100.292L233.066 99.8188" stroke="white" stroke-miterlimit="10"/>
<path d="M236.924 107.216V111.947L241.04 105.238V100.292L236.924 107.216ZM236.924 107.216L115.847 92.4216V96.7653" stroke="white" stroke-miterlimit="10"/>
<path d="M144.487 88.852C144.487 88.852 145.044 93.4538 147.488 93.9268C149.932 94.3999 195.036 100.464 198.294 99.0877C201.553 97.6684 202.41 94.5289 199.966 94.0989C197.523 93.6258 146.631 87.5188 144.487 88.852Z" stroke="white" stroke-miterlimit="10"/>
<path d="M122.578 86.4867L144.487 88.8521" stroke="white" stroke-miterlimit="10"/>
<path d="M160.007 88.422L159.536 17.7618C159.536 17.7618 155.72 18.2779 152.89 11.2248C152.89 11.2248 147.016 7.78421 142.343 10.7087C137.67 13.6331 136.169 17.9338 129.009 18.5789C129.009 18.5789 129.181 20.1702 125.365 23.3527C125.365 23.3527 128.194 29.7177 127.851 35.1365C127.508 40.5554 126.565 52.7693 127.165 59.2203C127.766 65.6714 129.781 67.5637 129.481 69.628C129.181 71.6923 127.723 72.8105 128.28 73.3696C128.838 73.9287 130.252 73.9287 129.695 75.4339C129.138 76.9391 127.723 77.6703 128.58 78.3584C129.438 79.0035 129.695 79.3905 129.309 80.8098C128.923 82.229 127.851 85.8846 127.851 85.8846L159.064 88.852L160.007 88.422Z" stroke="white" stroke-miterlimit="10"/>
<path d="M189.762 17.5898L188.347 91.6905L227.235 96.7653L228.092 95.7761C228.092 95.7761 227.792 89.3251 226.206 87.0888C226.206 87.0888 228.092 86.6157 227.706 85.1965C227.32 83.7772 226.206 81.8419 226.677 81.5409C227.149 81.2398 229.121 80.9818 228.178 78.2724C227.235 75.5629 226.248 76.208 228.435 70.7032C230.622 65.1983 230.836 52.3823 228.821 38.7491C227.706 31.0509 232.937 21.7184 232.937 21.7184L228.435 16.9447C228.435 16.9447 220.889 15.9985 217.331 13.031C213.772 10.0206 209.656 6.92408 203.053 8.3433C196.408 9.76252 197.265 16.2135 194.093 17.5037C191.606 18.5359 189.762 17.5898 189.762 17.5898Z" stroke="white" stroke-miterlimit="10"/>
<path d="M141.143 11.4828C145.988 8.7734 151.69 11.8699 151.69 11.8699C153.276 17.1597 158.55 18.665 158.55 18.665L159.064 88.594C159.064 88.594 154.991 79.6486 147.96 76.3371C140.928 73.0686 130.81 70.6602 129.481 69.585" stroke="white" stroke-miterlimit="10"/>
<path d="M158.593 18.665C155.248 18.923 151.261 15.3104 150.961 14.1923C150.661 13.0741 143.801 8.98845 139.342 14.1923C134.883 19.3961 128.966 18.536 128.966 18.536C128.966 18.536 132.825 25.159 131.882 33.5453C130.939 41.9317 125.665 50.447 130.295 70.1441" stroke="white" stroke-miterlimit="10"/>
<path d="M191.263 17.9768C191.263 17.9768 194.693 18.6649 196.922 15.9555C199.152 13.2461 201.467 8.68736 208.327 10.3646C215.187 12.0419 214.973 17.1597 227.063 17.5468L231.522 22.4495C231.522 22.4495 227.235 28.7715 227.363 35.0935C227.449 41.4155 231.093 55.0057 228.864 65.0693C226.634 75.1329 225.262 75.0469 226.634 77.9283C228.006 80.8098 225.82 81.7559 225.82 81.7559C225.82 81.7559 228.221 86.6157 225.348 87.2608C225.348 87.2608 227.749 94.959 227.278 96.7653" stroke="white" stroke-miterlimit="10"/>
<path d="M205.24 7.99927C205.24 7.99927 211.629 8.04227 214.973 12.472C218.317 16.9447 228.435 16.9017 228.435 16.9017" stroke="white" stroke-miterlimit="10"/>
<path d="M227.106 17.5468C227.106 17.5468 222.776 26.7502 223.333 34.5775C223.891 42.4047 229.379 61.8438 225.177 75.3479" stroke="white" stroke-miterlimit="10"/>
<path d="M158.593 17.5468V7.22516C158.593 7.22516 164.938 0.258057 173.684 0.258057C182.431 0.258057 190.105 6.96712 190.105 6.96712L190.32 17.8048" stroke="white" stroke-miterlimit="10"/>
<path d="M191.649 17.8908L191.263 6.36499C191.263 6.36499 184.06 -0.430089 173.685 0.25802" stroke="white" stroke-miterlimit="10"/>
<path d="M160.008 88.422L188.39 91.2174" stroke="white" stroke-miterlimit="10"/>
<path d="M226.077 75.3479C226.077 75.3479 220.16 78.5304 204.34 80.9818C188.519 83.4332 188.39 91.6475 188.39 91.6475C188.39 91.6475 190.62 88.422 199.281 86.4867C207.941 84.5084 220.975 84.2503 225.777 81.7559" stroke="white" stroke-miterlimit="10"/>
<path d="M225.305 87.3038C225.305 87.3038 216.259 89.2391 206.098 89.4111C195.936 89.5832 188.39 91.7335 188.39 91.7335" stroke="white" stroke-miterlimit="10"/>
<path d="M129.652 74.3588C129.652 74.3588 143.072 77.7133 147.188 79.5196C151.261 81.3259 156.921 85.5405 159.064 88.551C159.064 88.551 150.661 83.9493 145.087 82.186C139.471 80.4227 130.896 80.1217 129.138 78.8315" stroke="white" stroke-miterlimit="10"/>
<path d="M148.088 100.507L55.5652 150.094" stroke="white" stroke-miterlimit="10"/>
<path d="M15.6919 145.406C15.6919 145.406 16.335 147.556 17.6641 147.9M17.6641 147.9C19.0361 148.244 25.553 148.072 25.553 148.072C25.553 148.072 29.0687 150.094 27.7396 160.716C27.7396 160.716 21.6515 162.222 20.0222 160.716C18.393 159.211 19.4649 159.125 17.6641 156.932C15.8634 154.738 16.0349 150.051 17.6641 147.9Z" stroke="white" stroke-miterlimit="10"/>
<path d="M19.1645 159.727C19.1645 159.727 17.7497 160.888 18.3928 161.404C19.0788 161.921 25.2098 162.824 27.6965 160.716C27.6965 160.716 29.8403 161.62 28.897 164.114C28.897 164.114 30.3976 165.103 29.7117 167.081C29.7117 167.081 23.109 170.651 18.6929 167.081C17.0208 165.705 18.6929 163.856 18.6929 163.856C18.6929 163.856 15.5631 160.931 18.8644 159.168" stroke="white" stroke-miterlimit="10"/>
<path d="M18.7361 163.856C18.7361 163.856 22.509 167.296 28.9402 164.157" stroke="white" stroke-miterlimit="10"/>
<path d="M29.7546 167.124L165.281 208.497" stroke="white" stroke-miterlimit="10"/>
<path d="M166.353 185.574C166.353 185.574 166.653 186.693 166.353 187.811C166.053 188.929 163.566 194.563 168.282 203.508C170.941 208.54 177.415 207.379 179.258 207.207C181.102 207.035 184.275 205.185 184.875 202.003C185.475 198.82 187.361 194.649 185.389 187.811" stroke="white" stroke-miterlimit="10"/>
<path d="M166.439 206.734C166.439 206.734 165.624 206.175 165.71 207.68C165.795 209.185 164.895 210.948 168.582 213.271C172.27 215.593 182.645 217.614 186.29 210.217C187.661 207.465 186.547 206.433 185.947 206.648" stroke="white" stroke-miterlimit="10"/>
<path d="M167.425 201.745C167.425 201.745 166.01 202.003 166.01 204.024C166.01 206.046 166.31 207.594 166.996 208.497C167.682 209.4 174.413 214.991 181.487 210.991C185.946 208.497 186.461 206.476 186.247 204.54C186.032 202.605 186.075 201.057 185.046 201.186" stroke="white" stroke-miterlimit="10"/>
<path d="M167.51 203.723C167.51 203.723 168.497 208.884 176.9 208.497C185.261 208.067 185.346 202.863 185.346 202.863" stroke="white" stroke-miterlimit="10"/>
<path d="M185.646 201.358L232.68 126.698L233.28 119.387" stroke="white" stroke-miterlimit="10"/>
<path d="M237.139 111.603C237.139 111.603 238.811 114.527 236.582 120.29C236.582 120.29 235.467 121.623 233.237 121.365" stroke="white" stroke-miterlimit="10"/>
<path d="M233.023 124.247C233.023 124.247 235.895 124.419 236.71 123.645C236.71 123.645 238.511 121.107 236.796 119.688" stroke="white" stroke-miterlimit="10"/>
<path d="M232.68 126.698C232.68 126.698 236.11 127.214 236.924 125.795C237.739 124.333 237.053 123.085 237.053 123.085" stroke="white" stroke-miterlimit="10"/>
<path d="M237.568 120.806L246.614 121.967L188.819 229.14L0.900391 168.716L17.9216 159.942" stroke="white" stroke-miterlimit="10"/>
<path d="M246.786 124.72V122.397L189.42 230.731L0.214355 169.103V170.823L189.462 233.742L246.786 124.72Z" stroke="white" stroke-miterlimit="10"/>
<path d="M0.900347 168.716L0.214355 169.103" stroke="white" stroke-miterlimit="10"/>
</g>
<defs>
<clipPath id="clip0_313_1032">
<rect width="247" height="234" fill="white"/>
</clipPath>
</defs>
</svg>
