<svg width="120" height="89" viewBox="0 0 120 89" fill="none" xmlns="http://www.w3.org/2000/svg">
<g clip-path="url(#clip0_162_896)">
<path d="M13.9697 0.69873H50.5704C55.7392 0.69873 59.9301 4.88965 59.9301 10.0585V79.0689C58.6729 79.0689 57.4156 78.3704 56.7171 77.2529L55.7392 75.7162C54.4819 73.9001 52.5262 72.6428 50.291 72.6428H13.9697V0.69873Z" stroke="#D6B896" stroke-width="2" stroke-miterlimit="10"/>
<path d="M37.0198 8.52148H50.8498" stroke="#D6B896" stroke-width="2" stroke-miterlimit="10"/>
<path d="M37.0198 15.646H50.8498" stroke="#D6B896" stroke-width="2" stroke-miterlimit="10"/>
<path d="M37.0198 22.7705H50.8498" stroke="#D6B896" stroke-width="2" stroke-miterlimit="10"/>
<path d="M37.0198 29.895H50.8498" stroke="#D6B896" stroke-width="2" stroke-miterlimit="10"/>
<path d="M37.0198 37.02H50.8498" stroke="#D6B896" stroke-width="2" stroke-miterlimit="10"/>
<path d="M20.6753 44.1445H50.8499" stroke="#D6B896" stroke-width="2" stroke-miterlimit="10"/>
<path d="M20.6753 51.269H50.8499" stroke="#D6B896" stroke-width="2" stroke-miterlimit="10"/>
<path d="M20.6753 58.3936H50.8499" stroke="#D6B896" stroke-width="2" stroke-miterlimit="10"/>
<path d="M20.6753 65.5181H50.8499" stroke="#D6B896" stroke-width="2" stroke-miterlimit="10"/>
<path d="M13.9697 11.0361H0.698486V75.9954C0.698486 79.6275 3.63213 82.5612 7.26426 82.5612H41.4901H45.1222C48.8941 82.5612 52.5262 83.9581 55.1804 86.6124L55.4598 86.7521C56.4377 87.73 57.8347 88.149 59.2317 88.149H60.0698" stroke="#D6B896" stroke-width="2" stroke-miterlimit="10"/>
<path d="M106.03 11.0361H119.301V75.9954C119.301 79.6275 116.368 82.5612 112.736 82.5612H78.5099H75.0174C71.2456 82.5612 67.4738 84.0978 64.8195 86.7521C63.8417 87.73 62.4447 88.2888 61.0477 88.2888H60.0698" stroke="#D6B896" stroke-width="2" stroke-miterlimit="10"/>
<path d="M106.03 0.69873H69.4295C64.2607 0.69873 60.0698 4.88965 60.0698 10.0585V79.0689H60.2095C61.6065 79.0689 62.8638 78.3704 63.5623 77.2529L64.2607 75.9956C65.3783 74.0398 67.6135 72.7825 69.8486 72.7825H106.03V0.69873Z" stroke="#D6B896" stroke-width="2" stroke-miterlimit="10"/>
<path d="M31.9908 8.52148H20.6753V36.4609H31.9908V8.52148Z" stroke="#D6B896" stroke-width="2" stroke-miterlimit="10"/>
<path d="M68.731 43.5854H98.9056" stroke="#D6B896" stroke-width="2" stroke-miterlimit="10"/>
<path d="M68.731 50.71H98.9056" stroke="#D6B896" stroke-width="2" stroke-miterlimit="10"/>
<path d="M68.731 57.8345H98.9056" stroke="#D6B896" stroke-width="2" stroke-miterlimit="10"/>
<path d="M68.731 64.9595H98.9056" stroke="#D6B896" stroke-width="2" stroke-miterlimit="10"/>
<path d="M98.9056 7.96289H68.731V35.9024H98.9056V7.96289Z" stroke="#D6B896" stroke-width="2" stroke-miterlimit="10"/>
</g>
<defs>
<clipPath id="clip0_162_896">
<rect width="120" height="88.8475" fill="white"/>
</clipPath>
</defs>
</svg>
