<svg width="123" height="123" viewBox="0 0 123 123" fill="none" xmlns="http://www.w3.org/2000/svg">
<g clip-path="url(#clip0_162_921)">
<path d="M16.9252 57.012L22.9699 57.9824C23.6953 57.9824 23.9371 58.9528 23.4535 59.1954L19.1013 63.5623C18.8595 63.8049 18.8595 64.0475 18.8595 64.2901L19.8267 70.3552C19.8267 71.083 19.3431 71.5682 18.6177 71.083L13.0566 68.1718C12.8148 68.1718 12.573 68.1718 12.3312 68.1718L6.77005 71.083C6.28647 71.3256 5.5611 70.8404 5.5611 70.3552L6.52826 64.2901C6.52826 64.0475 6.52826 63.8049 6.28647 63.5623L2.41785 59.1954C1.93427 58.7102 2.17606 57.9824 2.90142 57.9824L8.94615 57.012C9.18794 57.012 9.42973 56.7694 9.42973 56.5268L12.3312 50.9469C12.573 50.4617 13.5401 50.4617 13.7819 50.9469L16.4416 56.5268C16.4416 56.7694 16.6834 57.012 16.9252 57.012Z" stroke="#D6B896" stroke-width="2" stroke-miterlimit="10"/>
<path d="M41.1041 57.012L47.1488 57.9824C47.8742 57.9824 48.116 58.9528 47.6324 59.1954L43.2802 63.5623C43.0384 63.8049 43.0384 64.0475 43.0384 64.2901L44.0056 70.3552C44.0056 71.083 43.522 71.5682 42.7966 71.083L37.2355 68.1718C36.9937 68.1718 36.7519 68.1718 36.5101 68.1718L30.9489 71.083C30.4654 71.3256 29.74 70.8404 29.74 70.3552L30.7072 64.2901C30.7072 64.0475 30.7072 63.8049 30.4654 63.5623L26.1132 59.1954C25.6296 58.7102 25.8714 57.9824 26.5967 57.9824L32.6415 57.012C32.8833 57.012 33.125 56.7694 33.125 56.5268L36.2683 50.9469C36.5101 50.4617 37.4772 50.4617 37.719 50.9469L40.3787 56.5268C40.6205 56.7694 40.6205 57.012 41.1041 57.012Z" stroke="#D6B896" stroke-width="2" stroke-miterlimit="10"/>
<path d="M65.0413 57.012L71.0861 57.9824C71.8114 57.9824 72.0532 58.9528 71.5696 59.1954L67.2174 63.5623C66.9757 63.8049 66.9757 64.0475 66.9757 64.2901L67.9428 70.3552C67.9428 71.083 67.4592 71.5682 66.7339 71.083L61.1727 68.1718C60.9309 68.1718 60.6891 68.1718 60.4473 68.1718L54.8862 71.083C54.4026 71.3256 53.6773 70.8404 53.6773 70.3552L54.6444 64.2901C54.6444 64.0475 54.6444 63.8049 54.4026 63.5623L50.0504 59.1954C49.5668 58.7102 49.8086 57.9824 50.534 57.9824L56.5787 57.012C56.8205 57.012 57.0623 56.7694 57.0623 56.5268L59.722 50.9469C59.9638 50.4617 60.9309 50.4617 61.1727 50.9469L63.8324 56.5268C64.5578 56.7694 64.7996 57.012 65.0413 57.012Z" stroke="#D6B896" stroke-width="2" stroke-miterlimit="10"/>
<path d="M88.9784 57.012L95.0231 57.9824C95.7484 57.9824 95.9902 58.9528 95.5067 59.1954L91.1545 63.5623C90.9127 63.8049 90.9127 64.0475 90.9127 64.2901L91.8798 70.3552C91.8798 71.083 91.3962 71.5682 90.6709 71.083L85.1097 68.1718C84.8679 68.1718 84.6262 68.1718 84.3844 68.1718L78.8232 71.083C78.3396 71.3256 77.6143 70.8404 77.6143 70.3552L78.5814 64.2901C78.5814 64.0475 78.5814 63.8049 78.3396 63.5623L73.9874 59.1954C73.5038 58.7102 73.7456 57.9824 74.471 57.9824L80.5157 57.012C80.7575 57.012 80.9993 56.7694 80.9993 56.5268L83.659 50.9469C83.9008 50.4617 84.8679 50.4617 85.1097 50.9469L87.7694 56.5268C88.4948 56.7694 88.7366 57.012 88.9784 57.012Z" stroke="#D6B896" stroke-width="2" stroke-miterlimit="10"/>
<path d="M113.157 57.012L119.202 57.9824C119.927 57.9824 120.169 58.9528 119.686 59.1954L115.333 63.5623C115.092 63.8049 115.092 64.0475 115.092 64.2901L116.059 70.3552C116.059 71.083 115.575 71.5682 114.85 71.083L109.289 68.1718C109.047 68.1718 108.805 68.1718 108.563 68.1718L103.002 71.083C102.519 71.3256 101.793 70.8404 101.793 70.3552L102.76 64.2901C102.76 64.0475 102.76 63.8049 102.519 63.5623L98.1664 59.1954C97.6828 58.7102 97.9246 57.9824 98.65 57.9824L104.695 57.012C104.936 57.012 105.178 56.7694 105.178 56.5268L107.838 50.9469C108.08 50.4617 109.047 50.4617 109.289 50.9469L111.948 56.5268C112.674 56.7694 112.916 57.012 113.157 57.012Z" stroke="#D6B896" stroke-width="2" stroke-miterlimit="10"/>
<path d="M12.8149 42.4555L0.483643 37.3608" stroke="#D6B896" stroke-width="2" stroke-miterlimit="10"/>
<path d="M17.8925 20.1363L12.8149 15.2842" stroke="#D6B896" stroke-width="2" stroke-miterlimit="10"/>
<path d="M33.6088 35.42L22.0029 24.2603" stroke="#D6B896" stroke-width="2" stroke-miterlimit="10"/>
<path d="M43.5221 22.8045L35.3013 4.12402" stroke="#D6B896" stroke-width="2" stroke-miterlimit="10"/>
<path d="M59.4802 15.5266V0" stroke="#D6B896" stroke-width="2" stroke-miterlimit="10"/>
<path d="M59.4802 28.3848V20.1362" stroke="#D6B896" stroke-width="2" stroke-miterlimit="10"/>
<path d="M74.2292 23.0472L83.659 2.91113" stroke="#D6B896" stroke-width="2" stroke-miterlimit="10"/>
<path d="M102.277 18.4379L107.596 13.1006" stroke="#D6B896" stroke-width="2" stroke-miterlimit="10"/>
<path d="M86.3188 34.4495L98.4083 22.3193" stroke="#D6B896" stroke-width="2" stroke-miterlimit="10"/>
<path d="M101.552 44.8817L117.751 37.8462" stroke="#D6B896" stroke-width="2" stroke-miterlimit="10"/>
<path d="M103.728 80.7871L117.993 86.8522" stroke="#D6B896" stroke-width="2" stroke-miterlimit="10"/>
<path d="M99.1335 103.106L104.695 108.444" stroke="#D6B896" stroke-width="2" stroke-miterlimit="10"/>
<path d="M83.9009 88.3076L95.0232 98.9822" stroke="#D6B896" stroke-width="2" stroke-miterlimit="10"/>
<path d="M74.2292 99.71L83.1754 119.361" stroke="#D6B896" stroke-width="2" stroke-miterlimit="10"/>
<path d="M57.5459 107.958V123" stroke="#D6B896" stroke-width="2" stroke-miterlimit="10"/>
<path d="M57.5459 95.3433V102.621" stroke="#D6B896" stroke-width="2" stroke-miterlimit="10"/>
<path d="M41.8295 99.9526L33.6086 120.089" stroke="#D6B896" stroke-width="2" stroke-miterlimit="10"/>
<path d="M14.7491 104.319L9.18799 109.899" stroke="#D6B896" stroke-width="2" stroke-miterlimit="10"/>
<path d="M30.2236 88.0649L17.8923 100.923" stroke="#D6B896" stroke-width="2" stroke-miterlimit="10"/>
<path d="M15.7164 79.0889L0.483643 85.154" stroke="#D6B896" stroke-width="2" stroke-miterlimit="10"/>
</g>
<defs>
<clipPath id="clip0_162_921">
<rect width="123" height="123" fill="white"/>
</clipPath>
</defs>
</svg>
