<svg width="106" height="121" viewBox="0 0 106 121" fill="none" xmlns="http://www.w3.org/2000/svg">
<g clip-path="url(#clip0_162_892)">
<path d="M52.9999 1.1377C78.928 19.1549 104.856 13.2756 104.856 13.2756C104.856 13.2756 106.381 43.8101 101.234 62.3963C92.8452 93.1205 52.9999 119.862 52.9999 119.862C52.9999 119.862 12.9639 93.1205 4.76609 62.3963C-0.381397 43.8101 1.14378 13.2756 1.14378 13.2756C1.14378 13.2756 27.0718 19.1549 52.9999 1.1377Z" stroke="#D6B896" stroke-width="2" stroke-miterlimit="10"/>
<path d="M53 87.4312C70.689 87.4312 85.0287 73.166 85.0287 55.5691C85.0287 37.9722 70.689 23.707 53 23.707C35.311 23.707 20.9712 37.9722 20.9712 55.5691C20.9712 73.166 35.311 87.4312 53 87.4312Z" stroke="#D6B896" stroke-width="2" stroke-miterlimit="10"/>
<path d="M38.5107 55.5688L52.0467 69.0344L69.205 44.5688" stroke="#D6B896" stroke-width="2" stroke-miterlimit="10"/>
</g>
<defs>
<clipPath id="clip0_162_892">
<rect width="106" height="121" fill="white"/>
</clipPath>
</defs>
</svg>
