<svg width="123" height="129" viewBox="0 0 123 129" fill="none" xmlns="http://www.w3.org/2000/svg">
<g clip-path="url(#clip0_162_916)">
<path d="M49.9282 56.4374C62.5665 56.4374 72.8119 44.0945 72.8119 28.8688C72.8119 13.6432 62.5665 1.30029 49.9282 1.30029C37.2898 1.30029 27.0444 13.6432 27.0444 28.8688C27.0444 44.0945 37.2898 56.4374 49.9282 56.4374Z" stroke="#D6B896" stroke-width="2" stroke-miterlimit="10"/>
<path d="M84.5138 71.5221C84.5138 71.5221 76.9726 66.0604 65.5307 65.8003L49.9282 80.1047L34.0656 65.8003C34.0656 65.8003 2.6005 68.6612 1.30029 99.0906V114.956C1.30029 118.077 3.90072 120.677 7.02122 120.677H68.1312" stroke="#D6B896" stroke-width="2" stroke-miterlimit="10"/>
<path d="M24.7041 95.7095V120.417" stroke="#D6B896" stroke-width="2" stroke-miterlimit="10"/>
<path d="M105.057 92.5886L120.14 94.6693C121.7 94.9294 122.22 96.7499 121.18 97.7903L110.258 108.454C109.738 108.974 109.478 109.494 109.738 110.014L112.338 124.839C112.598 126.399 111.038 127.7 109.478 126.919L96.2156 120.157C95.6956 119.897 94.9154 119.897 94.3954 120.157L81.1332 127.439C79.833 128.22 78.0127 126.919 78.2727 125.359L80.8732 110.534C80.8732 110.014 80.8732 109.234 80.3531 108.974L69.4313 98.3104C68.3911 97.2701 68.9112 95.1894 70.4715 95.1894L85.5539 93.1088C86.074 93.1088 86.5941 92.5887 87.1142 92.0685L93.6152 78.0241C94.3954 76.7237 96.2156 76.7237 96.9958 78.0241L103.757 91.5483C104.017 92.3286 104.537 92.5886 105.057 92.5886Z" stroke="#D6B896" stroke-width="2" stroke-miterlimit="10"/>
</g>
<defs>
<clipPath id="clip0_162_916">
<rect width="123" height="129" fill="white"/>
</clipPath>
</defs>
</svg>
