<svg width="72" height="72" viewBox="0 0 72 72" fill="none" xmlns="http://www.w3.org/2000/svg">
<path d="M19.9385 47.6308C19.9385 56.1646 26.9435 63.1385 35.7231 63.1385C44.5027 63.1385 51.5077 56.2563 51.5077 47.6308" stroke="white" stroke-width="2" stroke-miterlimit="10"/>
<path d="M55.9384 34.3385C55.9384 23.2927 47.0457 14.4 36 14.4C24.9543 14.4 16.0615 23.3863 16.0615 34.3385" stroke="white" stroke-width="2" stroke-miterlimit="10"/>
<path d="M60.3693 32.6769C60.3693 19.1801 49.4969 8.30769 36.0001 8.30769C22.5033 8.30769 11.6309 19.1801 11.6309 32.6769" stroke="white" stroke-width="2" stroke-miterlimit="10"/>
<path d="M19.9385 47.6308V35.0878C19.9385 35.0878 27.6464 36.133 35.4462 28.2462" stroke="white" stroke-width="2" stroke-miterlimit="10"/>
<path d="M51.5078 47.6308V35.0878C51.5078 35.0878 43.5246 36.133 35.4463 28.2462" stroke="white" stroke-width="2" stroke-miterlimit="10"/>
<path d="M16.0615 63.1385V34.3385" stroke="white" stroke-width="2" stroke-miterlimit="10"/>
<path d="M55.9385 34.3385V63.1385" stroke="white" stroke-width="2" stroke-miterlimit="10"/>
<path d="M60.3691 47.6308V32.6769" stroke="white" stroke-width="2" stroke-miterlimit="10"/>
<path d="M11.6309 32.6769V47.1979C11.6309 51.3867 15.0462 54.8308 19.2001 54.8308H28.2462" stroke="white" stroke-width="2" stroke-miterlimit="10"/>
<path d="M60.3691 31.5692C64.7076 31.5692 68.123 35.2022 68.123 39.6C68.123 43.9978 64.6153 47.6308 60.3691 47.6308" stroke="white" stroke-width="2" stroke-miterlimit="10"/>
<path d="M11.6309 31.5692C6.98258 31.5692 3.32324 35.2022 3.32324 39.6C3.32324 43.9978 7.08148 47.6308 11.6309 47.6308" stroke="white" stroke-width="2" stroke-miterlimit="10"/>
<path d="M33.6891 57.6H31.1108C29.4875 57.6 28.2461 56.3077 28.2461 54.8308C28.2461 53.2615 29.583 52.0615 31.1108 52.0615H33.6891C35.3124 52.0615 36.5538 53.3538 36.5538 54.8308C36.5538 56.4 35.3124 57.6 33.6891 57.6Z" stroke="white" stroke-width="2" stroke-miterlimit="10"/>
</svg>
