<svg width="284" height="93" viewBox="0 0 284 93" fill="none" xmlns="http://www.w3.org/2000/svg">
<path d="M129.4 26.5H138.4C140.8 26.5 142.7 27.2 144 28.4C144.9 29.3 145.4 30.5 145.4 31.8V31.9C145.4 34.7 143.7 36.1 142 36.8C144.5 37.5 146.6 39 146.6 41.9V42C146.6 45.6 143.5 47.8 138.9 47.8H129.5V26.5H129.4ZM142.9 32.1C142.9 30 141.2 28.6 138.2 28.6H131.7V35.9H138C141 35.9 142.9 34.7 142.9 32.1ZM144.1 41.7C144.1 39.4 142.2 38.1 138.5 38.1H131.8V45.6H138.9C142.1 45.6 144.1 44.2 144.1 41.7Z" fill="white"/>
<path d="M151.3 26.5H160.4C163 26.5 165.1 27.3 166.4 28.6C167.5 29.7 168 31.1 168 32.8V32.9C168 36.4 165.6 38.5 162.2 39.1L168.7 47.8H165.8L159.6 39.5H153.5V47.8H151.1V26.5H151.3ZM160.2 37.3C163.4 37.3 165.7 35.7 165.7 32.9V32.8C165.7 30.2 163.7 28.6 160.3 28.6H153.7V37.2H160.2V37.3Z" fill="white"/>
<path d="M173.3 26.5H188.7V28.7H175.7V36H187.3V38.2H175.7V45.6H188.8V47.8H173.3V26.5Z" fill="white"/>
<path d="M191.8 26.5H194.5L202.1 44.8L209.7 26.5H212.3L203.2 47.9H201.1L191.8 26.5Z" fill="white"/>
<path d="M216.4 26.5H218.8V39.2L231 26.5H234.1L225 35.8L234.5 47.8H231.5L223.3 37.5L218.8 42.1V47.8H216.4V26.5Z" fill="white"/>
<path d="M235.8 37.2C235.8 31.3 240.2 26.1 246.7 26.1C253.2 26.1 257.5 31.2 257.5 37V37.1C257.5 43 253.1 48.1 246.6 48.1C240.1 48.1 235.8 43 235.8 37.2ZM255 37.2C255 32.3 251.5 28.4 246.6 28.4C241.7 28.4 238.3 32.3 238.3 37.1V37.2C238.3 42 241.8 46 246.7 46C251.6 46 255 42 255 37.2Z" fill="white"/>
<path d="M130 60.1H136.6V68.3H135.7V61H131V68.3H130V60.1Z" fill="white"/>
<path d="M144.2 60.1H145.1L148.8 68.4H147.8L146.8 66.2H142.3L141.3 68.4H140.4L144.2 60.1ZM146.5 65.3L144.6 61.1L142.7 65.3H146.5Z" fill="white"/>
<path d="M152.8 60.1H153.7L156.7 64.6L159.7 60.1H160.6V68.3H159.7V61.7L156.7 66.1L153.7 61.7V68.3H152.8V60.1Z" fill="white"/>
<path d="M164.6 63.1L164.4 62.8C165.1 62.3 165.4 61.9 165.7 61.1L165.8 61.5L165.3 61C164.9 60.7 164.8 60.4 164.8 60.1C164.8 59.6 165.1 59.4 165.5 59.4C165.7 59.4 165.9 59.5 166.1 59.6C166.2 59.8 166.3 60.1 166.3 60.4C166.2 61.6 165.4 62.5 164.6 63.1Z" fill="white"/>
<path d="M176.3 68.3H175.4V65.1H173.1L170.6 68.3H169.5L172.1 65C170.8 64.8 169.8 63.9 169.8 62.6C169.8 61.1 171 60.1 172.9 60.1H176.3V68.3ZM172.8 61C171.5 61 170.7 61.6 170.7 62.6C170.7 63.7 171.6 64.3 172.9 64.3H175.3V61H172.8Z" fill="white"/>
<path d="M183.1 61H180.3V60.1H186.7V61H184V68.3H183.1V61Z" fill="white"/>
<path d="M190.8 60.1H191.7V63.7H196.4V60.1H197.3V68.3H196.4V64.6H191.7V68.3H190.8V60.1Z" fill="white"/>
<path d="M208 68.3V61.5L202.8 68.3H202V60.1H202.9V66.7L208 60.1H208.9V68.3H208Z" fill="white"/>
<path d="M213.6 60.1H214.5V63.7H215.8L219.2 60.1H220.4L216.6 64L220.6 68.2H219.4L215.9 64.4H214.5V68.2H213.6V60.1Z" fill="white"/>
<path d="M230.4 68.3V61.5L225.2 68.3H224.4V60.1H225.3V66.7L230.4 60.1H231.3V68.3H230.4Z" fill="white"/>
<path d="M241.9 60.1H242.8V68.3H241.9V60.1Z" fill="white"/>
<path d="M251.3 67.5C248.6 67.5 247.1 66.2 247.1 64.2C247.1 62.3 248.6 60.9 251.3 60.9V60H252.2V60.9C254.9 61 256.4 62.2 256.4 64.2C256.4 66.1 254.9 67.5 252.2 67.5V68.5H251.3V67.5ZM248 64.2C248 65.6 249.1 66.6 251.3 66.7V61.8C249.1 61.8 248 62.8 248 64.2ZM255.5 64.2C255.5 62.8 254.4 61.8 252.2 61.8V66.7C254.4 66.6 255.5 65.6 255.5 64.2Z" fill="white"/>
<path d="M106.156 22H53.156V74H106.156V22Z" fill="#196C43"/>
<path d="M69.9429 52.276H69.2227V29.0116H77.3616V29.7319H69.9429V52.276Z" fill="white"/>
<path d="M84.7083 40.2477C84.7083 40.2477 84.7803 39.8156 84.9244 39.1673C84.9964 38.5191 85.0684 37.6548 85.0684 36.7184C84.9964 35.8541 84.8523 34.9898 84.7083 34.3416C84.6362 34.1975 84.6363 34.0535 84.5642 33.9094C84.4922 33.7654 84.4922 33.6933 84.4202 33.5493C84.3481 33.3332 84.3481 33.2612 84.3481 33.2612L84.6363 33.1171C84.6363 33.1171 84.6362 33.1892 84.7083 33.4052C84.7083 33.4773 84.7803 33.6213 84.8523 33.7654C84.8523 33.9094 84.9244 34.0535 84.9964 34.1975C85.1404 34.8458 85.2845 35.7821 85.2845 36.6464C85.2845 37.5107 85.2125 38.4471 85.0684 39.0953C84.9244 39.7435 84.8523 40.1757 84.8523 40.1757L84.7083 40.2477Z" fill="#DEA527"/>
<path d="M82.6194 42.3365C82.4754 43.561 82.3313 44.6414 82.3313 44.6414C82.3313 44.7854 82.3313 44.7854 82.3313 44.8574C82.3313 44.8574 82.4033 44.9295 82.4754 44.7854C82.4754 44.7854 82.6194 44.6414 82.6914 44.5693C82.7635 44.4253 82.9075 44.2812 83.0516 44.1372C83.3397 43.8491 83.6998 43.4169 83.9159 43.1288C84.204 42.6967 84.4201 42.2645 84.5641 41.9044C84.6361 41.5442 84.6361 41.1841 84.5641 40.896C84.5641 41.9764 83.6278 42.8407 82.6914 43.777C82.7635 43.2729 82.7635 42.8407 82.8355 42.5526C82.9075 42.2645 82.9075 42.0484 82.9795 41.9044C83.0516 41.7603 83.0516 41.6163 83.1956 41.4722C83.2676 41.3282 83.4117 41.1841 83.6998 40.968C83.4837 41.1121 83.2676 41.2561 83.0516 41.4002C82.8355 41.6883 82.6914 41.9764 82.6194 42.3365Z" fill="#DEA527"/>
<path d="M79.018 41.6883C79.018 41.6883 79.018 41.6883 79.2341 41.6883C79.2341 41.6883 79.2341 41.6883 79.3061 41.6883C79.3781 41.6883 79.3781 41.6883 79.4502 41.6162C79.5942 41.6162 79.8103 41.5442 80.0264 41.4722C80.2425 41.4002 80.5306 41.4002 80.8907 41.4002C81.1788 41.4002 81.5389 41.4002 81.8991 41.4002C82.3312 41.4002 82.6193 41.2561 82.9074 41.1841C83.1235 41.04 83.3396 40.896 83.5557 40.7519C83.2676 40.896 83.0515 40.968 82.8354 40.968C82.6914 41.04 82.5473 41.04 82.3312 41.04C82.1151 41.04 81.9711 41.04 81.611 41.04C81.3228 41.04 80.8907 41.04 80.3145 41.04C80.9627 40.5358 81.683 40.1037 82.3312 39.8876C82.4753 39.8156 82.6914 39.8156 82.8354 39.7436C82.9795 39.7436 83.1235 39.7436 83.2676 39.7436C83.5557 39.7436 83.8438 39.8156 84.0598 39.9596C83.9878 39.8156 83.6997 39.5995 83.2676 39.4554C83.0515 39.3834 82.7634 39.3834 82.4753 39.4554C82.1872 39.5275 81.827 39.5995 81.4669 39.7436C80.9627 39.9596 80.3865 40.3198 79.9544 40.6799C79.7383 40.8239 79.5222 41.04 79.3781 41.1841C79.2341 41.3281 79.09 41.4002 79.09 41.4722C78.946 41.5442 78.946 41.6162 79.018 41.6883Z" fill="#DEA527"/>
<path d="M80.0986 44.7854C80.0986 45.4336 80.0986 46.0098 80.0986 46.442C80.0986 46.6581 80.0986 46.8021 80.0986 46.9462C80.0986 47.0902 80.0986 47.1622 80.0986 47.1622C80.0986 47.3063 80.0986 47.3063 80.1707 47.3063C80.1707 47.3063 80.2427 47.3783 80.3147 47.2343C80.3867 47.1622 80.6028 46.8741 80.8189 46.586C81.035 46.2259 81.3231 45.8658 81.6112 45.5056C81.7552 45.2896 81.8993 45.0735 81.9713 44.8574C82.0433 44.6413 82.1154 44.4252 82.1874 44.2812C82.2594 43.9211 82.1874 43.5609 82.0433 43.2728C82.1154 44.3532 81.2511 45.2896 80.4588 46.2979C80.4588 46.0098 80.4588 45.7937 80.4588 45.6497C80.4588 45.4336 80.4588 45.2896 80.4588 45.1455C80.4588 44.8574 80.4588 44.6413 80.5308 44.4973C80.6028 44.1371 80.7469 43.9931 81.107 43.4889C80.8909 43.633 80.6748 43.777 80.5308 43.9931C80.3147 44.0651 80.1707 44.3532 80.0986 44.7854Z" fill="#DEA527"/>
<path d="M76.4253 44.4253C76.4253 44.4253 76.4253 44.4253 76.6414 44.4253C76.6414 44.4253 76.7134 44.4253 76.8574 44.3532C77.0015 44.2812 77.2176 44.2092 77.4337 44.1371C77.9378 43.9931 78.5861 43.849 79.2343 43.849C79.6665 43.777 79.9546 43.705 80.2427 43.5609C80.4588 43.4169 80.6748 43.2728 80.8909 43.1288C80.3147 43.4169 80.0986 43.4889 79.7385 43.5609C79.5224 43.5609 79.3784 43.5609 79.0182 43.633C78.8742 43.633 78.6581 43.633 78.442 43.705C78.2259 43.705 77.9378 43.777 77.6497 43.849C78.2259 43.2728 78.9462 42.7686 79.5944 42.4805C79.8825 42.3365 80.2427 42.2645 80.5308 42.2645C80.8189 42.2645 81.107 42.2645 81.3231 42.4085C81.179 42.2645 80.9629 42.0484 80.5308 41.9764C80.0986 41.9043 79.5224 41.9764 78.8022 42.4085C78.298 42.6246 77.7938 43.0568 77.3616 43.4889C76.9295 43.849 76.5693 44.2812 76.4973 44.3532C76.4253 44.3532 76.4253 44.4253 76.4253 44.4253Z" fill="#DEA527"/>
<path d="M78.2259 47.3784C78.442 48.0266 78.586 48.5308 78.7301 48.8909C78.8021 49.107 78.8741 49.251 78.8741 49.3231C78.9461 49.3951 78.9461 49.4671 78.9461 49.4671C79.0182 49.6112 79.0182 49.6112 79.0902 49.6112C79.0902 49.6112 79.1622 49.6112 79.2342 49.5391C79.2342 49.4671 79.3783 49.179 79.4503 48.8189C79.5944 48.4588 79.7384 48.0266 79.8105 47.6665C80.0986 46.6581 79.9545 45.8658 79.5224 45.4337C79.7384 45.9378 79.6664 46.442 79.5224 47.0182C79.3783 47.5944 79.1622 48.1707 78.9461 48.7469C78.8741 48.5308 78.8021 48.3147 78.7301 48.0986C78.658 47.8825 78.586 47.7385 78.586 47.5944C78.514 47.3063 78.442 47.0903 78.442 46.9462C78.442 46.5861 78.442 46.37 78.7301 45.7938C78.658 45.8658 78.586 46.0099 78.514 46.0819C78.442 46.1539 78.3699 46.298 78.2979 46.442C78.2259 46.6581 78.1539 46.9462 78.2259 47.3784Z" fill="#DEA527"/>
<path d="M74.6245 48.3147C74.6245 48.3147 74.6245 48.3147 74.8406 48.1706C74.8406 48.1706 74.8406 48.1706 74.9126 48.0986C74.9126 48.0986 74.9847 48.0266 75.0567 47.9546C75.2007 47.8825 75.3448 47.7385 75.5609 47.5944C75.993 47.3063 76.5692 46.9462 77.2175 46.7301C77.6496 46.514 77.8657 46.298 78.0818 46.1539C78.1538 46.0819 78.2258 45.9378 78.2979 45.8658C78.3699 45.7938 78.4419 45.6497 78.514 45.5777C78.0098 46.0099 77.8657 46.1539 77.5056 46.298C77.3615 46.37 77.1455 46.442 76.8574 46.5861C76.7133 46.6581 76.5692 46.7301 76.3532 46.8021C76.1371 46.8742 75.921 47.0182 75.6329 47.1623C75.993 46.37 76.5692 45.7218 77.0734 45.2176C77.6496 44.7854 78.2258 44.5693 78.73 44.6414C78.586 44.4973 78.2979 44.4253 77.7937 44.4973C77.3615 44.5693 76.7853 44.7854 76.2091 45.4337C75.849 45.7938 75.4168 46.442 75.1287 46.9462C74.8406 47.5224 74.6245 47.9546 74.6245 48.0986C74.5525 48.3147 74.6245 48.3147 74.6245 48.3147Z" fill="#DEA527"/>
<path d="M77.2175 50.1153C77.4336 50.3314 77.5777 50.5475 77.7938 50.7636C77.9378 50.9796 78.1539 51.1237 78.2259 51.2677C78.37 51.4118 78.442 51.4838 78.514 51.5558C78.586 51.6279 78.6581 51.6279 78.6581 51.6279C78.8021 51.6999 78.8021 51.6999 78.8021 51.6999C78.8021 51.6999 78.8742 51.6999 78.8742 51.5558C78.8742 51.4838 78.8742 51.4118 78.8742 51.3398C78.8742 51.2677 78.8742 51.1957 78.8742 51.1237C78.8742 51.0517 78.8742 50.9796 78.8742 50.9076C78.8742 50.5475 78.8021 50.1874 78.7301 49.8272C78.7301 49.6832 78.7301 49.6111 78.6581 49.4671C78.6581 49.3951 78.586 49.251 78.586 49.179C78.586 49.107 78.514 48.9629 78.514 48.8909C78.514 48.8189 78.442 48.7468 78.37 48.6028C78.2259 48.3147 78.0098 48.0266 77.7217 47.8825C77.7938 47.9545 77.8658 48.0986 77.9378 48.1706C78.0098 48.2426 78.0819 48.3867 78.0819 48.5307C78.1539 48.7468 78.2259 49.0349 78.2259 49.251C78.2979 49.7552 78.2979 50.3314 78.2979 50.8356C77.9378 50.5475 77.7217 50.2594 77.5777 50.0433C77.4336 49.8272 77.2896 49.6832 77.2175 49.5391C77.1455 49.3951 77.0735 49.251 77.0735 49.107C77.0735 49.0349 77.0735 48.9629 77.0735 48.8188C77.0735 48.7468 77.0735 48.6028 77.0735 48.4587C77.0735 48.6028 77.0015 48.6748 77.0015 48.8188C77.0015 48.9629 76.9294 49.0349 76.9294 49.179C76.9294 49.323 76.9294 49.4671 77.0015 49.6111C77.0015 49.6832 77.0735 49.7552 77.0735 49.8272C77.1455 49.9713 77.2175 50.0433 77.2175 50.1153Z" fill="#DEA527"/>
<path d="M74.5525 52.2041C74.5525 52.2041 74.5525 52.2041 74.6966 52.06C74.6966 52.06 74.6966 51.988 74.7686 51.8439C74.8406 51.6999 74.9126 51.5558 75.0567 51.3398C75.2007 51.1237 75.3448 50.9076 75.4888 50.6915C75.7049 50.4755 75.921 50.2594 76.1371 50.0433C76.2091 49.9713 76.2811 49.8992 76.3532 49.8272C76.4252 49.7552 76.4252 49.6832 76.4972 49.6111C76.5692 49.4671 76.6413 49.323 76.7133 49.251C76.7853 49.107 76.7853 49.0349 76.8573 48.8909C76.8573 48.7468 76.9294 48.6748 76.9294 48.5308C76.8573 48.6748 76.7853 48.7468 76.7133 48.8909C76.6413 48.9629 76.6413 49.107 76.5692 49.179C76.4972 49.323 76.4252 49.4671 76.2811 49.5391C76.1371 49.6832 75.993 49.7552 75.7769 49.9713C75.5609 50.1874 75.2728 50.4755 74.9126 50.9076C74.9847 50.0433 75.2007 49.251 75.4888 48.6748C75.6329 48.3867 75.849 48.0986 76.0651 47.9545C76.2091 47.8825 76.2811 47.8105 76.4252 47.7385C76.5692 47.6664 76.6413 47.6664 76.7853 47.5944C76.6413 47.5224 76.2811 47.5224 75.921 47.7385C75.7769 47.8105 75.5609 47.9545 75.3448 48.2426C75.1287 48.4587 74.9847 48.7468 74.8406 49.107C74.6245 49.6111 74.4805 50.2594 74.4084 50.8356C74.4084 50.9796 74.4084 51.1237 74.4084 51.2677C74.4084 51.4118 74.4084 51.5559 74.4084 51.6279C74.4084 51.844 74.4084 51.988 74.4084 52.06C74.4805 52.2041 74.5525 52.2761 74.5525 52.2041Z" fill="#DEA527"/>
<path d="M77.5054 52.9964C78.0096 53.2845 78.5138 53.5005 78.8739 53.6446C79.018 53.7166 79.162 53.7886 79.3061 53.7886C79.3781 53.7886 79.4501 53.8607 79.4501 53.8607C79.5942 53.8607 79.5942 53.8607 79.5942 53.8607C79.5942 53.8607 79.6662 53.7886 79.5942 53.7166C79.5222 53.6446 79.3781 53.4285 79.234 53.1404C79.09 52.8523 78.8739 52.4922 78.7299 52.2041C78.5858 51.988 78.5138 51.8439 78.3697 51.6999C78.2257 51.5558 78.1537 51.4118 78.0096 51.2677C77.7215 51.0517 77.4334 50.9076 77.1453 50.8356C77.3614 50.9796 77.5054 51.1237 77.7215 51.3398C77.8656 51.5558 78.0096 51.6999 78.1537 51.916C78.3697 52.3481 78.5858 52.8523 78.8739 53.3565C78.6578 53.2845 78.4418 53.2124 78.2977 53.1404C78.1537 53.0684 78.0096 52.9964 77.8655 52.9243C77.6495 52.7803 77.5054 52.7082 77.3614 52.5642C77.2173 52.4922 77.1453 52.3481 77.0733 52.2041C77.0733 52.132 77.0012 52.06 76.9292 51.916C76.8572 51.8439 76.8572 51.6999 76.7852 51.5558C76.7852 51.6279 76.7852 51.6999 76.7852 51.6999V51.8439C76.7852 51.988 76.7852 52.06 76.8572 52.2041C76.9292 52.3481 76.9292 52.4201 77.0733 52.5642C77.2173 52.7082 77.3614 52.8523 77.5054 52.9964Z" fill="#DEA527"/>
<path d="M75.8489 55.9494C75.8489 55.9494 75.8489 55.9494 75.921 55.7334C75.921 55.7334 75.921 55.6613 75.921 55.5173C75.921 55.3732 75.921 55.1571 75.993 54.9411C76.065 54.4369 76.2091 53.8607 76.4972 53.2845C76.5692 53.0684 76.6412 52.9243 76.6412 52.7803C76.6412 52.6362 76.7132 52.4922 76.7132 52.3481C76.7132 52.2041 76.7132 52.06 76.7132 51.988V51.7719C76.7132 51.6999 76.7132 51.6279 76.7132 51.5558C76.7132 51.6999 76.6412 51.8439 76.6412 51.916C76.6412 52.06 76.6412 52.132 76.5692 52.2041C76.5692 52.3481 76.4972 52.4922 76.4251 52.6362C76.3531 52.7803 76.2811 52.9964 76.137 53.2845C76.065 53.4285 75.993 53.5726 75.921 53.7887C75.8489 54.0047 75.7769 54.2208 75.7049 54.5089C75.4168 53.7166 75.3447 52.8523 75.4168 52.2041C75.4888 51.8439 75.5608 51.5558 75.7049 51.2677C75.8489 51.0517 76.065 50.8356 76.2811 50.6915C76.065 50.6915 75.7769 50.7635 75.5608 51.1237C75.2727 51.4118 75.0566 51.988 74.9846 52.8523C74.9846 52.9964 74.9846 53.1404 74.9846 53.2845C74.9846 53.4285 74.9846 53.5726 75.0566 53.7166C75.0566 53.8607 75.1287 54.0047 75.1287 54.1488C75.1287 54.2928 75.2007 54.4369 75.2727 54.5809C75.4168 55.1571 75.7049 55.5893 75.7769 55.7334C75.7769 55.9494 75.8489 55.9494 75.8489 55.9494Z" fill="#DEA527"/>
<path d="M80.8906 56.0935C81.0346 56.0935 81.0346 56.0935 81.0346 56.0935C81.0346 56.0935 81.1067 56.0215 81.0346 55.9494C81.0346 55.8774 80.9626 55.8054 80.8186 55.7334C80.7465 55.6613 80.6025 55.5173 80.4584 55.3732C80.1703 55.0851 79.9543 54.797 79.6661 54.5089C79.5221 54.3649 79.306 54.2208 79.162 54.0768C79.0899 54.0047 79.0179 53.9327 78.9459 53.9327C78.8739 53.8607 78.8018 53.8607 78.7298 53.7887C78.5858 53.7166 78.4417 53.6446 78.2256 53.5726C78.0816 53.5006 77.9375 53.5005 77.7935 53.5005C78.2977 53.6446 78.6578 54.0047 79.0179 54.3649C79.378 54.725 79.7382 55.1572 80.0983 55.6613C79.9543 55.6613 79.8822 55.5893 79.7382 55.5893C79.6661 55.5893 79.5221 55.5173 79.4501 55.5173C79.234 55.4453 79.0899 55.4453 78.9459 55.3732C78.6578 55.3012 78.5137 55.2292 78.3697 55.1572C78.2256 55.0851 78.0816 55.0131 78.0095 54.8691C77.8655 54.725 77.7935 54.5809 77.6494 54.3649C77.7214 54.5809 77.7935 54.797 77.9375 55.0131C78.0816 55.2292 78.2977 55.4453 78.6578 55.5893C78.7298 55.5893 78.8018 55.6613 78.8739 55.6613C78.9459 55.6613 79.0179 55.7334 79.0899 55.7334C79.234 55.8054 79.378 55.8054 79.5221 55.8774C79.8102 55.9494 80.0263 56.0215 80.2424 56.0215C80.4584 56.0935 80.6025 56.0935 80.6745 56.1655C80.8186 56.0935 80.8906 56.0935 80.8906 56.0935Z" fill="#DEA527"/>
<path d="M78.6579 58.9025C78.6579 58.9025 78.6579 58.9025 78.5858 58.6864C78.5858 58.6864 78.5859 58.6144 78.5138 58.4704C78.4418 58.3263 78.3698 58.1102 78.2977 57.8941C78.2257 57.6781 78.1537 57.39 78.0817 57.1019C78.0817 56.9578 78.0096 56.8138 78.0096 56.5977C78.0096 56.5256 78.0096 56.4536 78.0096 56.3816C78.0096 56.3096 78.0096 56.2375 78.0096 56.0935C77.9376 55.6613 77.8656 55.3732 77.7215 55.0851C77.5775 54.869 77.4334 54.653 77.3614 54.4369C77.4334 54.725 77.5775 54.9411 77.5775 55.0851C77.6495 55.2292 77.6495 55.3732 77.6495 55.5893C77.6495 55.8054 77.6495 56.0215 77.7215 56.3096C77.7215 56.4536 77.7936 56.6697 77.7936 56.8858C77.7936 57.0298 77.8656 57.1019 77.8656 57.2459C77.8656 57.39 77.9376 57.534 77.9376 57.6781C77.3614 57.1019 76.9293 56.4536 76.6411 55.7334C76.353 55.0851 76.353 54.3649 76.6411 53.9327C76.4971 54.0047 76.4251 54.1488 76.353 54.3649C76.281 54.5089 76.209 54.725 76.209 54.9411C76.209 55.0851 76.209 55.1571 76.209 55.3012C76.209 55.4453 76.209 55.5893 76.281 55.7334C76.353 56.0215 76.4251 56.3096 76.6411 56.6697C76.9293 57.1739 77.2894 57.6781 77.7215 58.1102C77.9376 58.3263 78.0817 58.4704 78.2257 58.6144C78.3698 58.7585 78.5138 58.8305 78.5138 58.9025C78.5859 58.9745 78.6579 58.9025 78.6579 58.9025Z" fill="#DEA527"/>
<path d="M81.9712 59.2626C82.0432 59.2626 82.1152 59.2626 82.1152 59.1906C82.1152 59.1906 82.1152 59.1186 82.1152 59.0466C82.1152 58.9745 82.0432 58.9025 81.8992 58.7585C81.8271 58.6864 81.7551 58.6144 81.6831 58.5424C81.6111 58.4704 81.539 58.3983 81.467 58.2543C81.395 58.1823 81.323 58.0382 81.2509 57.9662C81.1789 57.8941 81.1069 57.7501 81.0349 57.6781C80.8908 57.462 80.7467 57.3179 80.6027 57.1739C80.2426 56.7417 79.8824 56.4536 79.5223 56.2375C79.3783 56.1655 79.1622 56.0215 79.0181 56.0215C78.8741 55.9494 78.658 55.8774 78.5139 55.8774C79.0901 56.1655 79.5223 56.5256 79.8824 56.9578C80.3146 57.39 80.6747 57.8941 81.0349 58.4704C80.3866 58.3263 79.7384 58.0382 79.2342 57.606C78.73 57.1739 78.3699 56.6697 78.2258 56.0215C78.2258 56.2375 78.2258 56.3816 78.2979 56.5977C78.3699 56.8138 78.4419 56.9578 78.5139 57.1739C78.73 57.606 79.0901 57.9662 79.5943 58.3263C80.0265 58.6144 80.5307 58.8305 81.0349 58.9745C81.1789 59.0466 81.2509 59.0466 81.395 59.0466C81.467 59.0466 81.6111 59.1186 81.6831 59.1186C81.8271 59.1906 81.9712 59.1906 81.9712 59.2626Z" fill="#DEA527"/>
<path d="M82.1153 31.3885C80.8188 30.3081 79.0902 29.7319 77.4336 29.7319V29.0116C79.3063 29.0116 81.1069 29.6598 82.6195 30.8123L82.1153 31.3885Z" fill="white"/>
<path d="M79.4504 62.5038V61.7835C84.7083 61.7835 88.9579 57.534 88.9579 52.276C88.9579 49.251 87.5174 46.3699 85.0685 44.5693L85.4286 43.993C88.0216 45.9377 89.6061 49.0349 89.6061 52.276C89.6782 57.8941 85.0685 62.5038 79.4504 62.5038Z" fill="white"/>
<path d="M79.4504 62.5038H69.2227V52.2761H69.9429V61.7835H79.4504V62.5038Z" fill="white"/>
<path d="M104.011 72.0112H51V19H104.011V72.0112ZM51.7203 71.291H103.291V19.7203H51.7203V71.291Z" fill="white"/>
</svg>
