<svg width="130" height="130" viewBox="0 0 130 130" fill="none" xmlns="http://www.w3.org/2000/svg">
<path d="M105.29 94H25.5449C19.7781 94 15 89.3138 15 83.2887V24.7113C15 18.8536 19.6134 14 25.5449 14H105.455C111.222 14 116 18.6862 116 24.7113V83.2887C115.835 89.3138 111.057 94 105.29 94Z" stroke="#D6B896" stroke-miterlimit="10"/>
<path d="M78 94H52V114H78V94Z" stroke="#D6B896" stroke-miterlimit="10"/>
<path d="M36 114H95" stroke="#D6B896" stroke-miterlimit="10"/>
<path d="M65 80C79.9117 80 92 68.1355 92 53.5C92 38.8645 79.9117 27 65 27C50.0883 27 38 38.8645 38 53.5C38 68.1355 50.0883 80 65 80Z" stroke="#D6B896" stroke-miterlimit="10"/>
<path d="M56 54.2418L62.8333 61L78 46" stroke="#D6B896" stroke-miterlimit="10"/>
</svg>
