<svg width="130" height="130" viewBox="0 0 130 130" fill="none" xmlns="http://www.w3.org/2000/svg">
<path d="M82.7255 59L114 90.2745L90.2745 114L59 82.7255" stroke="#D6B896" stroke-miterlimit="10"/>
<path d="M47.4886 71L15 38.5115L38.5115 15L71 47.4886" stroke="#D6B896" stroke-miterlimit="10"/>
<path d="M35 40C37.7614 40 40 37.7614 40 35C40 32.2386 37.7614 30 35 30C32.2386 30 30 32.2386 30 35C30 37.7614 32.2386 40 35 40Z" stroke="#D6B896" stroke-miterlimit="10"/>
<path d="M46 46L58 33" stroke="#D6B896" stroke-miterlimit="10"/>
<path d="M56 49L64 41" stroke="#D6B896" stroke-miterlimit="10"/>
<path d="M74 74L85 62" stroke="#D6B896" stroke-miterlimit="10"/>
<path d="M84 77L93 70" stroke="#D6B896" stroke-miterlimit="10"/>
<path d="M88 88L100 76" stroke="#D6B896" stroke-miterlimit="10"/>
<path d="M98 92L107 83" stroke="#D6B896" stroke-miterlimit="10"/>
<path d="M96.9853 21.739L24.71 94.0143L36.9831 106.288L109.258 34.0122L96.9853 21.739Z" stroke="#D6B896" stroke-miterlimit="10"/>
<path d="M37.0716 106.285L24.6431 94.071L17.3574 113.785L37.0716 106.285Z" stroke="#D6B896" stroke-miterlimit="10"/>
<path d="M109.286 33.8571L97.0713 21.6428C100.5 18.2143 105.857 18.2143 109.286 21.6428C112.714 25.0714 112.714 30.4285 109.286 33.8571Z" stroke="#D6B896" stroke-miterlimit="10"/>
<path d="M20.3574 105.428C20.3574 105.428 23.786 102.428 24.2145 105C24.6431 107.571 22.7146 109.714 25.5003 110.571" stroke="#D6B896" stroke-miterlimit="10"/>
</svg>
