<svg width="130" height="130" viewBox="0 0 130 130" fill="none" xmlns="http://www.w3.org/2000/svg">
<path d="M50 95V46H38" stroke="#D6B896" stroke-miterlimit="10"/>
<path d="M38 46V110H50V95.5332" stroke="#D6B896" stroke-miterlimit="10"/>
<path d="M38 46L50 46L50 38L38 38L38 46Z" stroke="#D6B896" stroke-miterlimit="10"/>
<path d="M49.7966 110H38.0508L35 114H53L49.7966 110Z" stroke="#D6B896" stroke-miterlimit="10"/>
<path d="M37.9088 38C37.9088 38 36.4964 27.1957 31.6314 27.1957C26.9234 27.3478 23 32.6739 23 32.6739C23 32.6739 26.1387 18.2174 36.4964 17H50.9343L55.0146 23.2391H58.3102L60.8212 20.8043H66V32.3696L60.6642 32.2174L58.781 29.9348H55.4854C55.4854 29.9348 49.9927 32.3696 49.9927 38" stroke="#D6B896" stroke-miterlimit="10"/>
<path d="M54 27C54 27 48.0652 28.28 47 35" stroke="#D6B896" stroke-miterlimit="10"/>
<path d="M96.0273 22.8948L95.0765 49.675L103 65L74 63.1424L82.3989 50.2942L83.6667 22.4304C83.5082 20.2633 84.6175 18.2509 86.5191 17.0125C89.3716 15.1549 93.3333 15.9289 95.235 18.7153C96.0273 19.9537 96.1858 21.5017 96.0273 22.8948Z" stroke="#D6B896" stroke-miterlimit="10"/>
<path d="M102.547 64.9049L106.333 88.7159C106.333 88.7159 109.488 107.13 102.074 106.653C97.9724 106.336 97.6569 103.161 94.8174 105.066C91.9779 106.971 91.3469 109.352 88.1919 107.13C85.1947 105.066 84.0904 110.146 80.9354 109.67C77.7805 109.352 74.941 118.718 71.4705 113.321L68 107.923L70.3662 86.176L73.8367 63" stroke="#D6B896" stroke-miterlimit="10"/>
<path d="M71 86.108C71 86.108 74.5153 92.3972 77.8777 86.2578C81.2402 80.1184 81.393 77.8722 83.9913 82.3645C86.5895 86.8568 87.5065 91.349 94.69 87.6055C102.026 83.8619 103.707 85.6588 106 88.3542" stroke="#D6B896" stroke-miterlimit="10"/>
<path d="M89.5 25C90.8807 25 92 23.8807 92 22.5C92 21.1193 90.8807 20 89.5 20C88.1193 20 87 21.1193 87 22.5C87 23.8807 88.1193 25 89.5 25Z" stroke="#D6B896" stroke-miterlimit="10"/>
</svg>
