<svg width="130" height="130" viewBox="0 0 130 130" fill="none" xmlns="http://www.w3.org/2000/svg">
<path d="M128.375 75.875H110.5V54.75" stroke="#D6B896" stroke-miterlimit="10"/>
<path d="M30.7125 49.7125H0" stroke="#D6B896" stroke-miterlimit="10"/>
<path d="M30.7123 63.6875H8.6123" stroke="#D6B896" stroke-miterlimit="10"/>
<path d="M30.7125 77.825H17.875" stroke="#D6B896" stroke-miterlimit="10"/>
<path d="M48.4254 99.4375C55.0666 99.4375 60.4504 94.0537 60.4504 87.4125C60.4504 80.7713 55.0666 75.3875 48.4254 75.3875C41.7842 75.3875 36.4004 80.7713 36.4004 87.4125C36.4004 94.0537 41.7842 99.4375 48.4254 99.4375Z" stroke="#D6B896" stroke-miterlimit="10"/>
<path d="M101.238 99.4375C107.879 99.4375 113.263 94.0537 113.263 87.4125C113.263 80.7713 107.879 75.3875 101.238 75.3875C94.5967 75.3875 89.2129 80.7713 89.2129 87.4125C89.2129 94.0537 94.5967 99.4375 101.238 99.4375Z" stroke="#D6B896" stroke-miterlimit="10"/>
<path d="M30.7129 40.9375V87.9H36.4004C36.4004 87.7375 36.4004 87.575 36.4004 87.4125C36.4004 80.75 41.7629 75.3875 48.4254 75.3875C55.0879 75.3875 60.4504 80.75 60.4504 87.4125C60.4504 87.575 60.4504 87.7375 60.4504 87.9H89.2129C89.2129 87.7375 89.2129 87.575 89.2129 87.4125C89.2129 80.75 94.5754 75.3875 101.238 75.3875V40.9375H30.7129Z" stroke="#D6B896" stroke-miterlimit="10"/>
<path d="M116.35 55.075H101.237V75.3875C107.9 75.3875 113.262 80.75 113.262 87.4125C113.262 87.575 113.262 87.7375 113.262 87.9H128.862V72.4625L116.35 55.075Z" stroke="#D6B896" stroke-miterlimit="10"/>
</svg>
