<svg width="130" height="130" viewBox="0 0 130 130" fill="none" xmlns="http://www.w3.org/2000/svg">
<path d="M84.7267 26H94.0325C98.9393 26 103 30.0841 103 35.0191V105.981C103 110.916 98.9393 115 94.0325 115H33.9675C29.0607 115 25 110.916 25 105.981V34.8489C25 29.914 29.0607 26 33.9675 26H43.9501" stroke="#D6B896" stroke-miterlimit="10"/>
<path d="M60 43H92" stroke="#D6B896" stroke-miterlimit="10"/>
<path d="M60 50H92" stroke="#D6B896" stroke-miterlimit="10"/>
<path d="M60 68H92" stroke="#D6B896" stroke-miterlimit="10"/>
<path d="M60 75H92" stroke="#D6B896" stroke-miterlimit="10"/>
<path d="M60 93H92" stroke="#D6B896" stroke-miterlimit="10"/>
<path d="M60 101H92" stroke="#D6B896" stroke-miterlimit="10"/>
<path d="M53 88H38V103H53V88Z" stroke="#D6B896" stroke-miterlimit="10"/>
<path d="M53 71.9011V78H38V63H47.0341" stroke="#D6B896" stroke-miterlimit="10"/>
<path d="M53 65L46.5385 72L43 68.1667" stroke="#D6B896" stroke-miterlimit="10"/>
<path d="M53 46.9783V54H38V37H47.0341" stroke="#D6B896" stroke-miterlimit="10"/>
<path d="M53 41L46.5385 48L43 44.0732" stroke="#D6B896" stroke-miterlimit="10"/>
<path d="M72.11 21.7879H70.471V21.303C70.471 17.9091 67.6847 15 64.0789 15C60.473 15 57.6867 17.7475 57.6867 21.303V21.7879H56.0477C52.1141 21.7879 49 24.8586 49 28.7374V31H78.9938V28.7374C79.1577 24.8586 76.0436 21.7879 72.11 21.7879Z" stroke="#D6B896" stroke-miterlimit="10"/>
<path d="M63.5 24C64.8807 24 66 22.8807 66 21.5C66 20.1193 64.8807 19 63.5 19C62.1193 19 61 20.1193 61 21.5C61 22.8807 62.1193 24 63.5 24Z" stroke="#D6B896" stroke-miterlimit="10"/>
</svg>
