<svg width="130" height="130" viewBox="0 0 130 130" fill="none" xmlns="http://www.w3.org/2000/svg">
<path d="M36 86C36 101.408 48.6479 114 64.5 114C80.3521 114 93 101.574 93 86" stroke="#D6B896" stroke-miterlimit="10"/>
<path d="M101 62C101 42.0563 84.9437 26 65 26C45.0563 26 29 42.2254 29 62" stroke="#D6B896" stroke-miterlimit="10"/>
<path d="M109 59C109 34.6308 89.3692 15 65 15C40.6308 15 21 34.6308 21 59" stroke="#D6B896" stroke-miterlimit="10"/>
<path d="M36 86V63.3529C36 63.3529 49.9172 65.2402 64 51" stroke="#D6B896" stroke-miterlimit="10"/>
<path d="M93 86V63.3529C93 63.3529 78.5858 65.2402 64 51" stroke="#D6B896" stroke-miterlimit="10"/>
<path d="M29 114V62" stroke="#D6B896" stroke-miterlimit="10"/>
<path d="M101 62V114" stroke="#D6B896" stroke-miterlimit="10"/>
<path d="M109 86V59" stroke="#D6B896" stroke-miterlimit="10"/>
<path d="M21 59V85.2185C21 92.7815 27.1667 99 34.6667 99H51" stroke="#D6B896" stroke-miterlimit="10"/>
<path d="M109 57C116.833 57 123 63.5595 123 71.5C123 79.4405 116.667 86 109 86" stroke="#D6B896" stroke-miterlimit="10"/>
<path d="M21 57C12.6071 57 6 63.5595 6 71.5C6 79.4405 12.7857 86 21 86" stroke="#D6B896" stroke-miterlimit="10"/>
<path d="M60.8276 104H56.1724C53.2414 104 51 101.667 51 99C51 96.1667 53.4138 94 56.1724 94H60.8276C63.7586 94 66 96.3333 66 99C66 101.833 63.7586 104 60.8276 104Z" stroke="#D6B896" stroke-miterlimit="10"/>
</svg>
