<svg width="587" height="544" viewBox="0 0 587 544" fill="none" xmlns="http://www.w3.org/2000/svg">
<g clip-path="url(#clip0_205_1514)">
<path d="M110.365 328.713L309.057 245.844L375.777 253.354V260.864L218.051 362.034L110.365 336.137V328.713Z" stroke="white" stroke-miterlimit="10"/>
<path d="M395.223 302.644L458.572 310.413V315.592C458.572 315.592 401.013 376.018 386.062 388.016C371.11 400.102 339.997 392.074 306.637 397.771C273.277 403.468 262.56 426.516 262.56 426.516C251.93 429.365 220.212 416.762 220.212 416.762C220.212 416.762 214.335 408.906 222.804 402.864L395.223 302.644Z" stroke="white" stroke-miterlimit="10"/>
<path d="M375.777 253.354L217.446 348.654L110.365 328.713" stroke="white" stroke-miterlimit="10"/>
<path d="M218.051 362.034L217.446 348.654" stroke="white" stroke-miterlimit="10"/>
<path d="M458.572 310.327C458.572 310.327 396.95 363.156 383.209 373.946C369.467 384.736 337.404 384.477 304.216 388.707C271.029 392.937 256.769 413.74 256.769 413.74C240.089 414.604 220.557 404.763 220.557 404.763" stroke="white" stroke-miterlimit="10"/>
<path d="M392.37 382.406C392.37 382.406 393.666 386.635 390.382 390.692C387.185 394.75 322.452 461.735 322.452 461.735L236.805 435.062C236.805 435.062 228.681 434.026 231.187 424.013C231.878 420.991 233.866 421.682 233.866 421.682" stroke="white" stroke-miterlimit="10"/>
<path d="M382.777 390.175L321.415 451.722L231.188 424.013" stroke="white" stroke-miterlimit="10"/>
<path d="M322.539 461.649L321.415 451.722" stroke="white" stroke-miterlimit="10"/>
<path d="M475.857 296.17V288.919L458.572 303.939V311.622L475.857 296.17Z" stroke="white" stroke-miterlimit="10"/>
<path d="M328.416 291.509V294.185L393.494 303.594" stroke="white" stroke-miterlimit="10"/>
<path d="M458.572 303.939L332.91 288.401" stroke="white" stroke-miterlimit="10"/>
<path d="M460.82 287.797L355.899 277.352L341.726 282.704" stroke="white" stroke-miterlimit="10"/>
<path d="M475.857 288.919L460.819 287.797" stroke="white" stroke-miterlimit="10"/>
<path d="M566.95 235.659C566.95 235.659 582.074 236.263 586.05 238.68C590.112 241.097 553.727 243.514 522.7 241.528C491.673 239.543 484.673 229.012 484.673 229.012V241.528C484.673 241.528 497.896 249.211 522.441 250.851C546.985 252.491 585.013 252.232 586.309 247.916V239.025" stroke="white" stroke-miterlimit="10"/>
<path d="M484.76 229.012H496.081" stroke="white" stroke-miterlimit="10"/>
<path d="M565.999 239.111C565.999 239.111 567.9 232.551 570.406 227.285C572.913 222.106 578.358 205.36 574.555 170.486C570.666 135.612 566.949 119.987 572.049 94.4361C572.913 90.2926 574.209 85.6312 574.209 85.6312C574.209 85.6312 541.8 85.1133 522.527 67.2447L495.562 79.3297C495.562 79.3297 505.415 98.2342 504.896 120.246C504.378 142.172 493.315 157.537 492.797 184.211C492.278 210.884 496.081 231.947 496.081 231.947C496.081 231.947 522.268 239.716 565.999 239.111Z" stroke="white" stroke-miterlimit="10"/>
<path d="M579.136 100.22L586.395 103.759C586.395 103.759 578.617 119.383 579.136 148.473C579.654 177.564 581.037 201.043 573.604 216.754" stroke="white" stroke-miterlimit="10"/>
<path d="M573.172 89.5157L582.506 94.695C582.506 94.695 576.37 101.86 575.851 118.002C575.332 134.144 578.53 172.903 575.851 189.908" stroke="white" stroke-miterlimit="10"/>
<path d="M500.402 91.4148L493.92 93.4002C493.92 93.4002 500.489 105.226 498.847 126.03C497.205 146.92 493.748 168.328 493.315 176.269" stroke="white" stroke-miterlimit="10"/>
<path d="M519.07 68.8848C519.07 68.8848 542.578 88.9978 569.802 88.2209C569.802 88.2209 563.752 109.888 567.641 139.841C571.53 169.795 580.259 193.102 570.407 227.372" stroke="white" stroke-miterlimit="10"/>
<path d="M572.308 93.2275L578.617 96.3351C578.617 96.3351 570.061 100.306 574.987 148.128" stroke="white" stroke-miterlimit="10"/>
<path d="M578.531 102.291L583.197 104.795C583.197 104.795 573.864 120.678 576.888 169.363" stroke="white" stroke-miterlimit="10"/>
<path d="M465.659 305.234L462.893 312.399C462.893 312.399 461.77 313.089 458.485 313.089" stroke="white" stroke-miterlimit="10"/>
<path d="M454.078 330.785C454.078 330.785 457.622 333.288 461.251 330.785C461.251 330.785 468.425 317.578 462.98 312.399" stroke="white" stroke-miterlimit="10"/>
<path d="M453.473 336.828C453.473 336.828 459.09 340.022 464.189 336.828C464.189 336.828 464.189 332.166 461.251 330.785" stroke="white" stroke-miterlimit="10"/>
<path d="M452.004 345.374C452.004 345.374 454.078 347.359 458.572 347.359C463.066 347.359 464.968 344.942 464.19 344.165C463.498 343.302 464.795 342.87 464.19 341.057C463.585 339.245 464.19 336.828 464.19 336.828" stroke="white" stroke-miterlimit="10"/>
<path d="M454.078 320.168L453.473 343.906L343.8 469.159" stroke="white" stroke-miterlimit="10"/>
<path d="M160.405 387.93C160.405 387.93 163.171 391.642 162.912 394.75C162.652 397.857 158.417 405.712 165.159 424.013C165.159 424.013 162.393 430.487 162.739 433.249C163.084 436.011 165.418 437.479 165.159 441.968C164.899 446.456 167.146 445.593 165.159 449.823C165.159 449.823 170.776 461.908 188.493 454.312C188.493 454.312 192.988 450.945 194.111 447.32C194.111 447.32 190.136 445.334 191 442.572C191.864 439.723 188.753 438.342 189.876 436.098C191 433.853 192.383 431.005 189.617 423.754C189.617 423.754 196.617 404.245 189.703 395.095L191.432 388.017" stroke="white" stroke-miterlimit="10"/>
<path d="M298.513 454.225C298.513 454.225 299.377 463.548 303.871 469.159C303.871 469.159 296.525 476.237 302.402 485.129C304.735 488.668 299.896 485.129 300.5 492.466C300.5 492.466 305.167 502.566 322.539 501.702C339.91 500.839 347.775 489.358 343.799 484.265C339.91 479.172 350.281 479.518 341.293 467.087C341.293 467.087 349.417 452.067 343.799 439.464" stroke="white" stroke-miterlimit="10"/>
<path d="M194.197 447.233L302.402 485.129C302.402 485.129 307.414 495.315 322.539 494.538C337.577 493.761 343.021 481.33 343.021 481.33" stroke="white" stroke-miterlimit="10"/>
<path d="M463.844 334.583L484.759 336.914V342.18L343.8 543.482L120.045 453.362V448.787L122.292 446.025L165.159 423.84C165.159 423.84 175.443 429.969 189.617 423.581" stroke="white" stroke-miterlimit="10"/>
<path d="M343.8 535.972L484.759 336.828L342.59 530.965L122.292 446.111L120.045 448.787L343.8 535.972Z" stroke="white" stroke-miterlimit="10"/>
<path d="M164.727 438.169C164.727 438.169 179.765 446.025 189.963 436.011" stroke="white" stroke-miterlimit="10"/>
<path d="M166.022 447.233C166.022 447.233 178.986 456.642 191.259 444.557" stroke="white" stroke-miterlimit="10"/>
<path d="M303.871 469.159C303.871 469.159 310.094 473.561 322.539 473.043C334.984 472.526 341.293 467.174 341.293 467.174" stroke="white" stroke-miterlimit="10"/>
<path d="M378.715 19.7677L375.863 168.5L454.165 178.686L458.14 176.355C458.14 176.355 455.288 163.752 452.09 159.264C452.09 159.264 455.893 158.314 455.115 155.466C454.337 152.617 452.09 148.732 453.041 148.128C453.992 147.524 457.967 147.006 456.066 141.568C454.165 136.129 452.177 137.424 456.584 126.375C460.992 115.24 461.424 89.602 457.362 62.238C455.115 46.7864 465.659 28.0546 465.659 28.0546L456.584 18.4729C456.584 18.4729 441.374 16.5738 434.2 10.6176C427.027 4.66137 418.817 -1.72644 405.421 1.12218C392.025 3.9708 393.753 16.9191 387.358 19.5087C382.345 21.5804 378.715 19.7677 378.715 19.7677Z" stroke="white" stroke-miterlimit="10"/>
<path d="M381.74 20.4583C381.74 20.4583 388.654 21.8394 393.148 16.4011C397.642 10.9629 402.309 1.81276 416.137 5.17931C429.965 8.54586 429.533 18.8182 453.905 19.595L462.807 29.5221C462.807 29.5221 454.165 42.2114 454.424 54.9007C454.683 67.59 461.943 94.8677 457.449 115.067C452.955 135.266 450.189 135.094 452.955 140.877C455.72 146.574 451.313 148.56 451.313 148.56C451.313 148.56 456.152 158.314 450.362 159.609C450.362 159.609 455.202 175.061 454.251 178.686" stroke="white" stroke-miterlimit="10"/>
<path d="M409.915 0.517929C409.915 0.517929 422.792 0.60425 429.534 9.4954C436.275 18.4729 456.671 18.3865 456.671 18.3865" stroke="white" stroke-miterlimit="10"/>
<path d="M453.905 19.595C453.905 19.595 445.177 38.0679 446.3 53.7785C447.424 69.489 458.486 108.507 450.016 135.612" stroke="white" stroke-miterlimit="10"/>
<path d="M451.917 135.698C451.917 135.698 439.99 142.086 408.099 147.006C376.209 151.926 375.949 168.414 375.949 168.414C375.949 168.414 380.443 161.94 397.901 158.055C415.359 154.084 441.632 153.566 451.312 148.56" stroke="white" stroke-miterlimit="10"/>
<path d="M450.275 159.609C450.275 159.609 432.04 163.493 411.557 163.839C391.074 164.184 375.863 168.5 375.863 168.5" stroke="white" stroke-miterlimit="10"/>
<path d="M473.437 472.008C473.437 472.008 471.536 473.13 471.536 474.943C471.536 476.755 473.178 481.935 484.586 481.071C495.994 480.208 498.847 472.267 493.229 470.281" stroke="white" stroke-miterlimit="10"/>
<path d="M476.549 468.986C476.549 468.986 472.746 469.677 473.438 473.389C474.215 477.187 482.339 476.669 484.327 476.496C486.315 476.324 496.254 474.425 492.624 469.159C491.76 467.864 488.648 468.123 488.648 468.123" stroke="white" stroke-miterlimit="10"/>
<path d="M477.067 472.698C477.067 472.698 477.672 468.814 476.203 467.519C474.733 466.224 469.721 465.533 470.326 459.75C470.931 453.966 469.029 433.422 467.387 428.329C465.745 423.236 474.993 419.956 481.647 420.215C488.302 420.56 492.969 422.545 492.883 425.394C492.796 428.242 492.278 451.204 493.488 458.455C494.698 465.706 488.648 464.67 488.043 466.742C487.438 468.9 488.302 472.18 488.302 472.18C488.302 472.18 483.03 475.202 477.067 472.698Z" stroke="white" stroke-miterlimit="10"/>
<path d="M486.314 425.308C486.314 425.308 486.574 422.632 482.685 422.545C478.795 422.459 472.832 422.373 472.832 425.308C472.832 428.242 479.228 428.156 480.351 428.07C481.475 427.983 485.969 427.12 486.314 425.308Z" stroke="white" stroke-miterlimit="10"/>
<path d="M492.796 425.394C492.796 425.394 490.031 430.918 480.351 431.35C470.671 431.782 467.128 427.552 467.128 427.552" stroke="white" stroke-miterlimit="10"/>
<path d="M322.884 203.892L329.885 197.332L337.231 51.5341L258.152 53.6058L255.3 197.677L322.884 203.892Z" stroke="white" stroke-miterlimit="10"/>
<path d="M329.712 201.389L338.441 202.079V209.589L328.329 215.718L223.582 203.892V196.986L235.509 192.67" stroke="white" stroke-miterlimit="10"/>
<path d="M322.885 203.892L327.465 202.77L334.293 197.159L341.466 52.311L337.231 51.5341" stroke="white" stroke-miterlimit="10"/>
<path d="M279.239 53.0016V35.7372L233.607 37.1184L230.928 187.059L236.718 194.742L255.04 196.296" stroke="white" stroke-miterlimit="10"/>
<path d="M223.582 196.986L328.243 208.899L338.441 202.079" stroke="white" stroke-miterlimit="10"/>
<path d="M328.33 215.718L328.243 208.899" stroke="white" stroke-miterlimit="10"/>
<path d="M276.042 53.0879V37.7226" stroke="white" stroke-miterlimit="10"/>
<path d="M413.89 201.13L413.285 203.633" stroke="#6D6D6D" stroke-miterlimit="10"/>
<path d="M412.162 208.381L396.433 272.432" stroke="#6D6D6D" stroke-miterlimit="10" stroke-dasharray="5.66 5.66"/>
<path d="M395.828 274.849L395.223 277.352" stroke="#6D6D6D" stroke-miterlimit="10"/>
<path d="M409.915 277.352L412.421 277.093" stroke="#6D6D6D" stroke-miterlimit="10"/>
<path d="M417.434 276.575L524.428 265.871" stroke="#6D6D6D" stroke-miterlimit="10" stroke-dasharray="5.79 5.79"/>
<path d="M526.935 265.612L529.441 265.353" stroke="#6D6D6D" stroke-miterlimit="10"/>
<path d="M381.74 271.309L379.493 270.101" stroke="#6D6D6D" stroke-miterlimit="10"/>
<path d="M374.999 267.511L287.019 218.222" stroke="#6D6D6D" stroke-miterlimit="10" stroke-dasharray="5.98 5.98"/>
<path d="M284.771 217.013L282.524 215.718" stroke="#6D6D6D" stroke-miterlimit="10"/>
<path d="M175.962 393.023C184.553 393.023 191.518 390.743 191.518 387.93C191.518 385.117 184.553 382.837 175.962 382.837C167.37 382.837 160.405 385.117 160.405 387.93C160.405 390.743 167.37 393.023 175.962 393.023Z" stroke="white" stroke-miterlimit="10"/>
<path d="M190.827 391.383L225.829 401.051" stroke="white" stroke-miterlimit="10"/>
<path d="M273.622 326.383L332.478 294.789" stroke="white" stroke-miterlimit="10"/>
<path d="M167.146 383.7L210.618 360.307" stroke="white" stroke-miterlimit="10"/>
<path d="M352.615 327.332V297.724L212.434 378.953L249.769 387.153" stroke="white" stroke-miterlimit="10"/>
<path d="M38.6316 313.089C17.5438 313.089 0.431641 319.132 0.431641 326.555C0.431641 327.246 0.604491 327.85 0.863767 328.454L1.46874 329.577C1.81444 330.181 2.333 330.699 2.85155 331.217C3.54295 331.907 4.4072 332.512 5.4443 333.116C12.0126 337.173 24.4578 339.935 38.6316 339.935C52.8917 339.935 65.2505 337.173 71.8189 333.116C72.7695 332.512 73.6338 331.821 74.4116 331.217C74.9302 330.699 75.4487 330.181 75.7944 329.577C76.4858 328.627 76.8315 327.591 76.8315 326.469C76.8315 319.132 59.7193 313.089 38.6316 313.089ZM68.6211 331.303C63.4356 335.274 51.9411 338.036 38.6316 338.036C25.3221 338.036 13.8275 335.274 8.64203 331.303C6.74068 329.836 5.70358 328.195 5.70358 326.469C5.70358 326.383 5.70358 326.296 5.70358 326.21C6.04928 319.909 20.6551 314.816 38.6316 314.816C56.608 314.816 71.2139 319.909 71.5596 326.21C71.5596 326.296 71.5596 326.383 71.5596 326.469C71.5596 328.282 70.5225 329.922 68.6211 331.303Z" stroke="white" stroke-miterlimit="10"/>
<path d="M1.38232 329.577C1.12304 329.231 0.950194 328.886 0.777344 328.454L1.38232 329.577Z" stroke="white" stroke-miterlimit="10"/>
<path d="M3.88916 334.324C3.54345 333.806 3.28418 333.375 3.11133 332.771L3.88916 334.324Z" stroke="white" stroke-miterlimit="10"/>
<path d="M74.1533 332.771C73.9805 333.288 73.7212 333.806 73.2891 334.324L74.1533 332.771Z" stroke="white" stroke-miterlimit="10"/>
<path d="M75.7944 329.663L74.1523 332.771L73.2881 334.324C70.6089 338.036 63.2628 341.057 53.4967 342.698C53.4103 342.698 53.3239 342.698 53.2374 342.698C48.7433 343.388 43.8171 343.82 38.5452 343.82C33.2732 343.82 28.347 343.388 23.8529 342.698C23.7665 342.698 23.68 342.698 23.5936 342.698C13.8276 341.144 6.48141 338.036 3.80223 334.324L3.0244 332.771L1.2959 329.577C1.6416 330.181 2.16015 330.699 2.6787 331.217C3.3701 331.907 4.23436 332.512 5.27146 333.116C11.8398 337.173 24.285 339.935 38.4587 339.935C52.7189 339.935 65.0777 337.173 71.646 333.116C72.5967 332.512 73.4609 331.821 74.2388 331.217C75.0166 330.699 75.4487 330.181 75.7944 329.663Z" stroke="white" stroke-miterlimit="10"/>
<path d="M75.8809 339.158C75.8809 339.331 75.8809 339.417 75.8809 339.59C75.8809 339.676 75.8809 339.763 75.8809 339.849C75.4487 343.043 71.646 345.978 65.6827 348.222C65.337 348.395 64.9913 348.481 64.5592 348.654C64.2135 348.826 63.7813 348.913 63.4356 348.999C62.6578 349.258 61.7935 349.517 60.9293 349.69C54.7067 351.33 47.0148 352.279 38.718 352.279C30.4212 352.279 22.7294 351.33 16.5067 349.69C15.6425 349.431 14.7782 349.258 14.0004 348.999C13.5683 348.913 13.2226 348.74 12.8769 348.654C12.5312 348.567 12.0991 348.395 11.7534 348.222C5.70359 345.978 1.81445 342.957 1.46875 339.676C1.46875 339.504 1.46875 339.331 1.46875 339.245C1.46875 337.518 2.41943 335.964 4.06151 334.497C6.74069 338.209 14.0868 341.23 23.8529 342.87C23.9393 342.87 24.0257 342.87 24.1122 342.87C28.6063 343.561 33.5325 343.992 38.8044 343.992C44.0764 343.992 49.0026 343.561 53.4967 342.87C53.5832 342.87 53.6696 342.87 53.756 342.87C63.5221 341.316 70.8682 338.209 73.5474 334.497C75.0166 335.792 75.8809 337.432 75.8809 339.158Z" stroke="white" stroke-miterlimit="10"/>
<path d="M68.5353 353.488C68.5353 354.092 68.4488 354.61 68.276 355.128C66.2882 361.257 53.843 365.918 38.6321 365.918C23.5077 365.918 10.9761 361.257 9.07471 355.128C8.90186 354.61 8.81543 354.006 8.81543 353.488C8.81543 353.229 8.81543 353.056 8.90186 352.797C8.90186 352.538 8.98828 352.279 9.07471 351.934C9.16113 352.02 9.24756 352.107 9.42041 352.193C9.85253 352.625 10.2847 353.056 10.7168 353.401C12.0132 354.524 13.396 355.559 14.6059 356.423C14.6059 356.423 14.6059 356.423 14.6923 356.509C19.1865 359.876 28.2611 362.206 38.7185 362.206C48.3982 362.206 56.8678 360.221 61.7077 357.2C63.4362 356.423 65.2511 355.214 66.9796 353.574C67.4117 353.229 67.8438 352.797 68.276 352.366C68.3624 352.279 68.4488 352.193 68.4488 352.193C68.4488 352.366 68.5353 352.538 68.5353 352.711C68.5353 353.056 68.5353 353.229 68.5353 353.488Z" stroke="white" stroke-miterlimit="10"/>
<path d="M70.2633 357.286C70.2633 357.804 70.1768 358.322 70.0904 358.84C68.2755 365.487 54.8796 370.666 38.7181 370.666C22.4701 370.666 9.16063 365.487 7.3457 358.84C7.17285 358.322 7.17285 357.804 7.17285 357.286C7.17285 355.732 7.77783 354.265 8.98778 352.797C8.98778 353.056 8.90136 353.229 8.90136 353.488C8.90136 354.092 8.98778 354.61 9.16063 355.128C11.1484 361.257 23.5936 365.918 38.7181 365.918C53.8425 365.918 66.3741 361.257 68.3619 355.128C68.5347 354.61 68.6212 354.006 68.6212 353.488C68.6212 353.229 68.6212 353.056 68.5347 352.797C69.6583 354.178 70.2633 355.732 70.2633 357.286Z" stroke="white" stroke-miterlimit="10"/>
<path d="M70.2633 360.566C70.2633 369.112 56.0895 375.931 38.6316 375.931C21.1737 375.931 7 369.026 7 360.566C7 359.962 7.08643 359.358 7.17285 358.753C8.98778 365.4 22.3837 370.579 38.5452 370.579C54.7931 370.579 68.1026 365.4 69.9176 358.753C70.1768 359.444 70.2633 359.962 70.2633 360.566Z" stroke="white" stroke-miterlimit="10"/>
<path d="M71.5601 326.555C71.5601 328.282 70.523 329.922 68.6217 331.389C63.4361 335.36 51.9416 338.123 38.6321 338.123C25.3226 338.123 13.8281 335.36 8.64256 331.389C6.7412 329.922 5.7041 328.282 5.7041 326.555C5.7041 326.469 5.7041 326.383 5.7041 326.296C6.0498 319.995 20.6557 314.902 38.6321 314.902C56.6085 314.902 71.2144 319.995 71.5601 326.296C71.5601 326.383 71.5601 326.469 71.5601 326.555Z" stroke="white" stroke-miterlimit="10"/>
<path d="M76.3999 328.454L75.7949 329.663" stroke="white" stroke-miterlimit="10"/>
<path d="M75.8813 339.763C75.5356 343.215 72.2515 348.308 68.3623 352.279C68.2759 352.366 68.1895 352.452 68.1895 352.452C67.7574 352.884 67.3252 353.315 66.8931 353.66C65.1646 355.214 63.3497 356.509 61.6212 357.286C56.8678 360.307 48.3117 362.293 38.6321 362.293C28.1746 362.293 19.1 359.962 14.6059 356.595C14.6059 356.595 14.6059 356.595 14.5194 356.509C13.2231 355.646 11.9267 354.61 10.6303 353.488C10.1982 353.142 9.76606 352.711 9.33393 352.279C9.24751 352.193 9.16108 352.107 8.98823 352.02C5.01267 348.222 1.64209 343.561 1.38281 339.59C1.72851 342.87 5.53122 345.891 11.6674 348.136C12.0131 348.308 12.3588 348.395 12.7909 348.567C13.1366 348.74 13.5688 348.826 13.9145 348.913C14.6923 349.172 15.5565 349.431 16.4208 349.603C22.6434 351.243 30.3353 352.193 38.6321 352.193C46.9289 352.193 54.6207 351.243 60.8434 349.603C61.7076 349.344 62.5719 349.172 63.3497 348.913C63.7818 348.826 64.1275 348.654 64.4732 348.567C64.8189 348.481 65.251 348.308 65.5967 348.136C71.5601 345.978 75.3628 343.043 75.8813 339.763Z" stroke="white" stroke-miterlimit="10"/>
<path d="M75.8809 339.59C75.8809 339.676 75.8809 339.763 75.8809 339.849" stroke="white" stroke-miterlimit="10"/>
<path d="M154.961 251.455C154.961 257.93 151.331 263.627 146.059 266.562C143.553 267.943 140.701 268.72 137.676 268.72C134.651 268.72 131.799 267.943 129.292 266.562C124.02 263.627 120.391 257.93 120.391 251.455C120.391 241.96 128.082 234.191 137.676 234.191C147.269 234.277 154.961 241.96 154.961 251.455Z" stroke="white" stroke-miterlimit="10"/>
<path d="M137.762 281.927C138.453 281.927 139.231 281.927 139.922 281.927C139.231 281.927 138.54 281.927 137.762 281.927ZM137.762 281.927C137.07 281.927 136.292 281.927 135.515 281.927C136.206 281.927 136.984 281.927 137.762 281.927Z" stroke="white" stroke-miterlimit="10"/>
<path d="M137.762 281.927C138.453 281.927 139.231 281.927 139.922 281.927C139.231 281.927 138.54 281.927 137.762 281.927ZM137.762 281.927C137.07 281.927 136.292 281.927 135.515 281.927C136.206 281.927 136.984 281.927 137.762 281.927Z" stroke="white" stroke-miterlimit="10"/>
<path d="M137.762 281.927C138.453 281.927 139.231 281.927 139.922 281.927C139.231 281.927 138.54 281.927 137.762 281.927ZM137.762 281.927C137.07 281.927 136.292 281.927 135.515 281.927C136.206 281.927 136.984 281.927 137.762 281.927Z" stroke="white" stroke-miterlimit="10"/>
<path d="M157.726 283.567V286.934C157.726 289.61 148.738 291.854 137.762 291.854C126.7 291.854 117.798 289.61 117.798 286.934V283.567C117.798 284.171 118.23 284.689 118.921 285.207C121.687 287.106 129.033 288.487 137.762 288.487C146.405 288.487 153.837 287.106 156.603 285.207C157.294 284.689 157.726 284.085 157.726 283.567Z" stroke="white" stroke-miterlimit="10"/>
<path d="M150.294 275.539C150.294 275.884 149.689 276.23 148.652 276.489C146.491 277.093 142.429 277.438 137.762 277.438C133.095 277.438 129.033 277.093 126.873 276.489C125.835 276.23 125.23 275.884 125.23 275.539C125.835 275.28 126.44 275.021 126.873 274.59C130.07 272 129.465 266.562 129.465 266.562C131.972 267.943 134.824 268.72 137.849 268.72C140.873 268.72 143.725 267.943 146.232 266.562C146.232 266.562 145.627 272 148.825 274.59C149.17 274.935 149.689 275.28 150.294 275.539Z" stroke="white" stroke-miterlimit="10"/>
<path d="M151.676 278.56C151.676 278.992 151.33 279.424 150.812 279.769C149.083 280.891 144.935 281.754 139.922 281.927C139.231 281.927 138.453 281.927 137.762 281.927C137.07 281.927 136.292 281.927 135.515 281.927C130.502 281.754 126.44 280.891 124.625 279.769C124.02 279.424 123.761 278.992 123.761 278.56C123.761 278.302 123.847 278.043 124.106 277.784L125.144 275.453C125.144 275.798 125.749 276.143 126.786 276.402C128.946 277.007 133.008 277.352 137.675 277.352C142.342 277.352 146.404 277.007 148.565 276.402C149.602 276.143 150.207 275.798 150.207 275.453L151.244 277.784C151.59 278.129 151.676 278.388 151.676 278.56Z" stroke="white" stroke-miterlimit="10"/>
<path d="M157.726 283.567C157.726 284.171 157.294 284.689 156.516 285.207C153.75 287.106 146.404 288.487 137.675 288.487C129.033 288.487 121.6 287.106 118.834 285.207C118.057 284.689 117.711 284.085 117.711 283.567C117.711 280.201 123.674 278.647 123.674 278.647C123.674 279.078 124.02 279.51 124.539 279.855C126.267 280.977 130.415 281.841 135.428 282.013C136.12 282.013 136.897 282.013 137.675 282.013C138.453 282.013 139.144 282.013 139.836 282.013C144.848 281.841 148.91 280.977 150.725 279.855C151.33 279.51 151.59 279.078 151.59 278.647C151.676 278.56 157.726 280.201 157.726 283.567Z" stroke="white" stroke-miterlimit="10"/>
<path d="M137.762 322.153V297.724" stroke="#6D6D6D" stroke-miterlimit="10" stroke-dasharray="6 6"/>
<path d="M218.137 367.386L238.101 401.051" stroke="#6D6D6D" stroke-miterlimit="10" stroke-dasharray="6 6"/>
<path d="M127.391 343.302L160.405 378.176" stroke="#6D6D6D" stroke-miterlimit="10" stroke-dasharray="6 6"/>
<path d="M365.838 271.309L379.493 303.939" stroke="#6D6D6D" stroke-miterlimit="10" stroke-dasharray="6 6"/>
</g>
<defs>
<clipPath id="clip0_205_1514">
<rect width="587" height="544" fill="white"/>
</clipPath>
</defs>
</svg>
