<svg width="130" height="130" viewBox="0 0 130 130" fill="none" xmlns="http://www.w3.org/2000/svg">
<path d="M69 103H38.8672C34.5625 103 31 99.3678 31 94.9789V31.8697C31 27.4808 34.5625 24 38.8672 24H47.625" stroke="#D6B896" stroke-miterlimit="10"/>
<path d="M84 24H92.6574C97.2222 24 101 27.6681 101 32.1004V59" stroke="#D6B896" stroke-miterlimit="10"/>
<path d="M41 39H90" stroke="#D6B896" stroke-miterlimit="10"/>
<path d="M41 45H90" stroke="#D6B896" stroke-miterlimit="10"/>
<path d="M41 53H90" stroke="#D6B896" stroke-miterlimit="10"/>
<path d="M41 60H79" stroke="#D6B896" stroke-miterlimit="10"/>
<path d="M41 67H68" stroke="#D6B896" stroke-miterlimit="10"/>
<path d="M41 74H61" stroke="#D6B896" stroke-miterlimit="10"/>
<path d="M98 84L92.3231 90L89 86.6341" stroke="#D6B896" stroke-miterlimit="10"/>
<path d="M72.5693 20.3636H71.0396V19.9091C71.0396 16.7273 68.439 14 65.0736 14C61.7082 14 59.1076 16.5758 59.1076 19.9091V20.3636H57.5779C53.9065 20.3636 51 23.2424 51 26.8788V29H78.9942V26.8788C79.1472 23.2424 76.2407 20.3636 72.5693 20.3636Z" stroke="#D6B896" stroke-miterlimit="10"/>
<path d="M65 22C66.6569 22 68 21.1046 68 20C68 18.8954 66.6569 18 65 18C63.3431 18 62 18.8954 62 20C62 21.1046 63.3431 22 65 22Z" stroke="#D6B896" stroke-miterlimit="10"/>
<path d="M92.5758 57L100.152 62.4803H109.545L112.424 71.4619L120 77.0945L117.121 85.9239L120 94.9055L112.424 100.538L109.545 109.52H100.152L92.5758 115L85 109.52H75.6061L72.5758 100.538L65 94.9055L67.8788 85.9239L65 77.0945L72.5758 71.4619L75.6061 62.4803H85L92.5758 57Z" stroke="#D6B896" stroke-miterlimit="10"/>
<path d="M92.5 103C101.06 103 108 95.8366 108 87C108 78.1634 101.06 71 92.5 71C83.9396 71 77 78.1634 77 87C77 95.8366 83.9396 103 92.5 103Z" stroke="#D6B896" stroke-miterlimit="10"/>
</svg>
